<ttFont>
<head>
    <!-- Most of this table will be recalculated by the compiler -->
    <tableVersion value="1.0"/>
    <fontRevision value="0.84999"/>
    <checkSumAdjustment value="0x67565a0e"/>
    <magicNumber value="0x5f0f3cf5"/>
    <flags value="00000000 00000111"/>
    <unitsPerEm value="1000"/>
    <created value="Sat Nov 28 12:14:13 2020"/>
    <modified value="Wed Sep  1 18:33:30 2021"/>
    <xMin value="-168"/>
    <yMin value="-219"/>
    <xMax value="698"/>
    <yMax value="1024"/>
    <macStyle value="00000000 00000001"/>
    <lowestRecPPEM value="7"/>
    <fontDirectionHint value="2"/>
    <indexToLocFormat value="0"/>
    <glyphDataFormat value="0"/>
  </head>
    <TTGlyph name=".notdef" xMin="98" yMin="-200" xMax="431" yMax="850">
      <contour>
        <pt x="431" y="-200" on="1"/>
        <pt x="98" y="-200" on="1"/>
        <pt x="98" y="850" on="1"/>
        <pt x="431" y="850" on="1"/>
      </contour>
      <contour>
        <pt x="350" y="-128" on="1"/>
        <pt x="350" y="-93" on="1"/>
        <pt x="243" y="-93" on="1"/>
        <pt x="316" y="-44" on="1"/>
        <pt x="350" y="-44" on="1"/>
        <pt x="350" y="-9" on="1"/>
        <pt x="175" y="-9" on="1"/>
        <pt x="175" y="-44" on="1"/>
        <pt x="249" y="-44" on="1"/>
        <pt x="175" y="-93" on="1"/>
        <pt x="175" y="-128" on="1"/>
      </contour>
      <contour>
        <pt x="350" y="15" on="1"/>
        <pt x="350" y="134" on="1"/>
        <pt x="175" y="134" on="1"/>
        <pt x="175" y="15" on="1"/>
      </contour>
      <contour>
        <pt x="350" y="197" on="1"/>
        <pt x="350" y="316" on="1"/>
        <pt x="245" y="316" on="1"/>
        <pt x="245" y="257" on="1"/>
        <pt x="280" y="257" on="1"/>
        <pt x="280" y="281" on="1"/>
        <pt x="315" y="281" on="1"/>
        <pt x="315" y="232" on="1"/>
        <pt x="210" y="232" on="1"/>
        <pt x="210" y="316" on="1"/>
        <pt x="175" y="316" on="1"/>
        <pt x="175" y="197" on="1"/>
      </contour>
      <contour>
        <pt x="350" y="339" on="1"/>
        <pt x="350" y="444" on="1"/>
        <pt x="315" y="444" on="1"/>
        <pt x="315" y="374" on="1"/>
        <pt x="175" y="374" on="1"/>
        <pt x="175" y="339" on="1"/>
      </contour>
      <contour>
        <pt x="280" y="399" on="1"/>
        <pt x="280" y="472" on="1"/>
        <pt x="350" y="472" on="1"/>
        <pt x="350" y="507" on="1"/>
        <pt x="175" y="507" on="1"/>
        <pt x="175" y="472" on="1"/>
        <pt x="245" y="472" on="1"/>
        <pt x="245" y="433" on="1"/>
        <pt x="175" y="433" on="1"/>
        <pt x="175" y="399" on="1"/>
      </contour>
      <contour>
        <pt x="350" y="535" on="1"/>
        <pt x="350" y="571" on="1"/>
        <pt x="280" y="571" on="1"/>
        <pt x="280" y="644" on="1"/>
        <pt x="175" y="644" on="1"/>
        <pt x="175" y="535" on="1"/>
      </contour>
      <contour>
        <pt x="350" y="672" on="1"/>
        <pt x="350" y="706" on="1"/>
        <pt x="280" y="706" on="1"/>
        <pt x="280" y="745" on="1"/>
        <pt x="350" y="745" on="1"/>
        <pt x="350" y="780" on="1"/>
        <pt x="176" y="780" on="1"/>
        <pt x="176" y="745" on="1"/>
        <pt x="245" y="745" on="1"/>
        <pt x="245" y="706" on="1"/>
        <pt x="175" y="706" on="1"/>
        <pt x="175" y="672" on="1"/>
      </contour>
      <contour>
        <pt x="210" y="99" on="1"/>
        <pt x="315" y="99" on="1"/>
        <pt x="315" y="50" on="1"/>
        <pt x="210" y="50" on="1"/>
      </contour>
      <contour>
        <pt x="210" y="609" on="1"/>
        <pt x="245" y="609" on="1"/>
        <pt x="245" y="571" on="1"/>
        <pt x="210" y="571" on="1"/>
      </contour>
    </TTGlyph>
    <TTGlyph name="A" xMin="32" yMin="0" xMax="668" yMax="800">
      <contour>
        <pt x="444" y="238" on="1"/>
        <pt x="249" y="238" on="1"/>
        <pt x="197" y="0" on="1"/>
        <pt x="32" y="0" on="1"/>
        <pt x="215" y="800" on="1"/>
        <pt x="484" y="800" on="1"/>
        <pt x="668" y="0" on="1"/>
        <pt x="496" y="0" on="1"/>
      </contour>
      <contour>
        <pt x="411" y="392" on="1"/>
        <pt x="346" y="686" on="1"/>
        <pt x="282" y="392" on="1"/>
      </contour>
    </TTGlyph>
    <TTGlyph name="B" xMin="91" yMin="0" xMax="655" yMax="800">
      <contour>
        <pt x="509" y="800" on="0"/>
        <pt x="655" y="688" on="0"/>
        <pt x="655" y="585" on="1"/>
        <pt x="655" y="513" on="0"/>
        <pt x="580" y="426" on="0"/>
        <pt x="511" y="419" on="1"/>
        <pt x="511" y="382" on="1"/>
        <pt x="578" y="374" on="0"/>
        <pt x="650" y="289" on="0"/>
        <pt x="650" y="219" on="1"/>
        <pt x="650" y="115" on="0"/>
        <pt x="503" y="0" on="0"/>
        <pt x="370" y="0" on="1"/>
        <pt x="91" y="0" on="1"/>
        <pt x="91" y="800" on="1"/>
        <pt x="376" y="800" on="1"/>
      </contour>
      <contour>
        <pt x="370" y="151" on="1"/>
        <pt x="428" y="151" on="0"/>
        <pt x="488" y="196" on="0"/>
        <pt x="488" y="240" on="1"/>
        <pt x="488" y="284" on="0"/>
        <pt x="428" y="330" on="0"/>
        <pt x="370" y="330" on="1"/>
        <pt x="253" y="330" on="1"/>
        <pt x="253" y="151" on="1"/>
      </contour>
      <contour>
        <pt x="376" y="471" on="1"/>
        <pt x="434" y="471" on="0"/>
        <pt x="493" y="516" on="0"/>
        <pt x="493" y="560" on="1"/>
        <pt x="493" y="649" on="0"/>
        <pt x="376" y="649" on="1"/>
        <pt x="253" y="649" on="1"/>
        <pt x="253" y="471" on="1"/>
      </contour>
    </TTGlyph>
    <TTGlyph name="C" xMin="60" yMin="-19" xMax="664" yMax="819">
      <contour>
        <pt x="215" y="-19" on="0"/>
        <pt x="60" y="194" on="0"/>
        <pt x="60" y="400" on="1"/>
        <pt x="60" y="606" on="0"/>
        <pt x="219" y="819" on="0"/>
        <pt x="372" y="819" on="1"/>
        <pt x="503" y="819" on="0"/>
        <pt x="653" y="662" on="0"/>
        <pt x="664" y="513" on="1"/>
        <pt x="503" y="513" on="1"/>
        <pt x="485" y="663" on="0"/>
        <pt x="372" y="663" on="1"/>
        <pt x="296" y="663" on="0"/>
        <pt x="223" y="534" on="0"/>
        <pt x="223" y="400" on="1"/>
        <pt x="223" y="267" on="0"/>
        <pt x="293" y="137" on="0"/>
        <pt x="364" y="137" on="1"/>
        <pt x="419" y="137" on="0"/>
        <pt x="481" y="206" on="0"/>
        <pt x="489" y="276" on="1"/>
        <pt x="650" y="276" on="1"/>
        <pt x="637" y="131" on="0"/>
        <pt x="490" y="-19" on="0"/>
        <pt x="364" y="-19" on="1"/>
      </contour>
    </TTGlyph>
    <TTGlyph name="D" xMin="71" yMin="0" xMax="646" yMax="800">
      <contour>
        <pt x="71" y="800" on="1"/>
        <pt x="305" y="800" on="1"/>
        <pt x="476" y="800" on="0"/>
        <pt x="646" y="601" on="0"/>
        <pt x="646" y="400" on="1"/>
        <pt x="646" y="199" on="0"/>
        <pt x="476" y="0" on="0"/>
        <pt x="305" y="0" on="1"/>
        <pt x="71" y="0" on="1"/>
      </contour>
      <contour>
        <pt x="305" y="156" on="1"/>
        <pt x="478" y="156" on="0"/>
        <pt x="478" y="400" on="1"/>
        <pt x="478" y="644" on="0"/>
        <pt x="305" y="644" on="1"/>
        <pt x="234" y="644" on="1"/>
        <pt x="234" y="156" on="1"/>
      </contour>
    </TTGlyph>
    <TTGlyph name="E" xMin="109" yMin="0" xMax="629" yMax="800">
      <contour>
        <pt x="109" y="800" on="1"/>
        <pt x="629" y="800" on="1"/>
        <pt x="629" y="644" on="1"/>
        <pt x="272" y="644" on="1"/>
        <pt x="272" y="473" on="1"/>
        <pt x="572" y="473" on="1"/>
        <pt x="572" y="324" on="1"/>
        <pt x="272" y="324" on="1"/>
        <pt x="272" y="156" on="1"/>
        <pt x="609" y="156" on="1"/>
        <pt x="609" y="0" on="1"/>
        <pt x="109" y="0" on="1"/>
      </contour>
    </TTGlyph>
    <TTGlyph name="Euro" xMin="40" yMin="-19" xMax="671" yMax="819">
      <contour>
        <pt x="269" y="-19" on="0"/>
        <pt x="133" y="119" on="0"/>
        <pt x="113" y="261" on="1"/>
        <pt x="40" y="261" on="1"/>
        <pt x="40" y="372" on="1"/>
        <pt x="104" y="372" on="1"/>
        <pt x="104" y="400" on="1"/>
        <pt x="104" y="426" on="0"/>
        <pt x="105" y="439" on="1"/>
        <pt x="40" y="439" on="1"/>
        <pt x="40" y="549" on="1"/>
        <pt x="115" y="549" on="1"/>
        <pt x="137" y="685" on="0"/>
        <pt x="274" y="819" on="0"/>
        <pt x="393" y="819" on="1"/>
        <pt x="526" y="819" on="0"/>
        <pt x="663" y="671" on="0"/>
        <pt x="671" y="520" on="1"/>
        <pt x="503" y="520" on="1"/>
        <pt x="497" y="593" on="0"/>
        <pt x="443" y="663" on="0"/>
        <pt x="393" y="663" on="1"/>
        <pt x="351" y="663" on="0"/>
        <pt x="298" y="607" on="0"/>
        <pt x="284" y="549" on="1"/>
        <pt x="431" y="549" on="1"/>
        <pt x="431" y="439" on="1"/>
        <pt x="272" y="439" on="1"/>
        <pt x="271" y="427" on="0"/>
        <pt x="271" y="400" on="1"/>
        <pt x="271" y="372" on="1"/>
        <pt x="431" y="372" on="1"/>
        <pt x="431" y="261" on="1"/>
        <pt x="281" y="261" on="1"/>
        <pt x="305" y="137" on="0"/>
        <pt x="387" y="137" on="1"/>
        <pt x="432" y="137" on="0"/>
        <pt x="481" y="200" on="0"/>
        <pt x="487" y="266" on="1"/>
        <pt x="656" y="266" on="1"/>
        <pt x="643" y="122" on="0"/>
        <pt x="510" y="-19" on="0"/>
        <pt x="387" y="-19" on="1"/>
      </contour>
    </TTGlyph>
    <TTGlyph name="F" xMin="126" yMin="0" xMax="645" yMax="800">
      <contour>
        <pt x="126" y="800" on="1"/>
        <pt x="645" y="800" on="1"/>
        <pt x="645" y="644" on="1"/>
        <pt x="289" y="644" on="1"/>
        <pt x="289" y="457" on="1"/>
        <pt x="599" y="457" on="1"/>
        <pt x="599" y="306" on="1"/>
        <pt x="289" y="306" on="1"/>
        <pt x="289" y="0" on="1"/>
        <pt x="126" y="0" on="1"/>
      </contour>
    </TTGlyph>
    <TTGlyph name="G" xMin="51" yMin="-19" xMax="662" yMax="819">
      <contour>
        <pt x="232" y="-19" on="0"/>
        <pt x="114" y="79" on="0"/>
        <pt x="51" y="267" on="0"/>
        <pt x="51" y="400" on="1"/>
        <pt x="51" y="606" on="0"/>
        <pt x="214" y="819" on="0"/>
        <pt x="370" y="819" on="1"/>
        <pt x="501" y="819" on="0"/>
        <pt x="650" y="672" on="0"/>
        <pt x="662" y="530" on="1"/>
        <pt x="501" y="530" on="1"/>
        <pt x="492" y="598" on="0"/>
        <pt x="428" y="663" on="0"/>
        <pt x="370" y="663" on="1"/>
        <pt x="291" y="663" on="0"/>
        <pt x="214" y="534" on="0"/>
        <pt x="214" y="400" on="1"/>
        <pt x="214" y="265" on="0"/>
        <pt x="291" y="132" on="0"/>
        <pt x="368" y="132" on="1"/>
        <pt x="420" y="132" on="0"/>
        <pt x="481" y="201" on="0"/>
        <pt x="492" y="273" on="1"/>
        <pt x="350" y="273" on="1"/>
        <pt x="350" y="418" on="1"/>
        <pt x="638" y="418" on="1"/>
        <pt x="638" y="0" on="1"/>
        <pt x="491" y="0" on="1"/>
        <pt x="491" y="88" on="1"/>
        <pt x="454" y="88" on="1"/>
        <pt x="441" y="36" on="0"/>
        <pt x="369" y="-19" on="0"/>
        <pt x="313" y="-19" on="1"/>
      </contour>
    </TTGlyph>
    <TTGlyph name="H" xMin="71" yMin="0" xMax="629" yMax="800">
      <contour>
        <pt x="234" y="800" on="1"/>
        <pt x="234" y="476" on="1"/>
        <pt x="466" y="476" on="1"/>
        <pt x="466" y="800" on="1"/>
        <pt x="629" y="800" on="1"/>
        <pt x="629" y="0" on="1"/>
        <pt x="466" y="0" on="1"/>
        <pt x="466" y="321" on="1"/>
        <pt x="234" y="321" on="1"/>
        <pt x="234" y="0" on="1"/>
        <pt x="71" y="0" on="1"/>
        <pt x="71" y="800" on="1"/>
      </contour>
    </TTGlyph>
    <TTGlyph name="I" xMin="91" yMin="0" xMax="609" yMax="800">
      <contour>
        <pt x="91" y="156" on="1"/>
        <pt x="269" y="156" on="1"/>
        <pt x="269" y="644" on="1"/>
        <pt x="91" y="644" on="1"/>
        <pt x="91" y="800" on="1"/>
        <pt x="609" y="800" on="1"/>
        <pt x="609" y="644" on="1"/>
        <pt x="431" y="644" on="1"/>
        <pt x="431" y="156" on="1"/>
        <pt x="609" y="156" on="1"/>
        <pt x="609" y="0" on="1"/>
        <pt x="91" y="0" on="1"/>
      </contour>
    </TTGlyph>
    <TTGlyph name="J" xMin="75" yMin="-19" xMax="602" yMax="800">
      <contour>
        <pt x="213" y="-19" on="0"/>
        <pt x="75" y="125" on="0"/>
        <pt x="75" y="253" on="1"/>
        <pt x="75" y="350" on="1"/>
        <pt x="234" y="350" on="1"/>
        <pt x="234" y="253" on="1"/>
        <pt x="234" y="197" on="0"/>
        <pt x="287" y="137" on="0"/>
        <pt x="336" y="137" on="1"/>
        <pt x="386" y="137" on="0"/>
        <pt x="439" y="197" on="0"/>
        <pt x="439" y="253" on="1"/>
        <pt x="439" y="644" on="1"/>
        <pt x="131" y="644" on="1"/>
        <pt x="131" y="800" on="1"/>
        <pt x="602" y="800" on="1"/>
        <pt x="602" y="253" on="1"/>
        <pt x="602" y="126" on="0"/>
        <pt x="461" y="-19" on="0"/>
        <pt x="336" y="-19" on="1"/>
      </contour>
    </TTGlyph>
    <TTGlyph name="K" xMin="102" yMin="0" xMax="696" yMax="800">
      <contour>
        <pt x="264" y="800" on="1"/>
        <pt x="264" y="451" on="1"/>
        <pt x="504" y="800" on="1"/>
        <pt x="696" y="800" on="1"/>
        <pt x="403" y="391" on="1"/>
        <pt x="679" y="0" on="1"/>
        <pt x="481" y="0" on="1"/>
        <pt x="264" y="320" on="1"/>
        <pt x="264" y="0" on="1"/>
        <pt x="102" y="0" on="1"/>
        <pt x="102" y="800" on="1"/>
      </contour>
    </TTGlyph>
    <TTGlyph name="L" xMin="143" yMin="0" xMax="642" yMax="800">
      <contour>
        <pt x="143" y="800" on="1"/>
        <pt x="306" y="800" on="1"/>
        <pt x="306" y="156" on="1"/>
        <pt x="642" y="156" on="1"/>
        <pt x="642" y="0" on="1"/>
        <pt x="143" y="0" on="1"/>
      </contour>
    </TTGlyph>
    <TTGlyph name="M" xMin="58" yMin="0" xMax="642" yMax="800">
      <contour>
        <pt x="58" y="800" on="1"/>
        <pt x="286" y="800" on="1"/>
        <pt x="345" y="387" on="1"/>
        <pt x="362" y="387" on="1"/>
        <pt x="421" y="800" on="1"/>
        <pt x="642" y="800" on="1"/>
        <pt x="642" y="0" on="1"/>
        <pt x="499" y="0" on="1"/>
        <pt x="499" y="364" on="1"/>
        <pt x="512" y="659" on="1"/>
        <pt x="495" y="659" on="1"/>
        <pt x="434" y="257" on="1"/>
        <pt x="266" y="257" on="1"/>
        <pt x="205" y="659" on="1"/>
        <pt x="188" y="659" on="1"/>
        <pt x="201" y="364" on="1"/>
        <pt x="201" y="0" on="1"/>
        <pt x="58" y="0" on="1"/>
      </contour>
    </TTGlyph>
    <TTGlyph name="N" xMin="71" yMin="0" xMax="629" yMax="800">
      <contour>
        <pt x="71" y="800" on="1"/>
        <pt x="339" y="800" on="1"/>
        <pt x="473" y="123" on="1"/>
        <pt x="490" y="123" on="1"/>
        <pt x="478" y="417" on="1"/>
        <pt x="478" y="800" on="1"/>
        <pt x="629" y="800" on="1"/>
        <pt x="629" y="0" on="1"/>
        <pt x="360" y="0" on="1"/>
        <pt x="227" y="677" on="1"/>
        <pt x="210" y="677" on="1"/>
        <pt x="222" y="383" on="1"/>
        <pt x="222" y="0" on="1"/>
        <pt x="71" y="0" on="1"/>
      </contour>
    </TTGlyph>
    <TTGlyph name="O" xMin="38" yMin="-19" xMax="662" yMax="819">
      <contour>
        <pt x="196" y="-19" on="0"/>
        <pt x="38" y="193" on="0"/>
        <pt x="38" y="400" on="1"/>
        <pt x="38" y="607" on="0"/>
        <pt x="196" y="819" on="0"/>
        <pt x="350" y="819" on="1"/>
        <pt x="504" y="819" on="0"/>
        <pt x="662" y="607" on="0"/>
        <pt x="662" y="400" on="1"/>
        <pt x="662" y="193" on="0"/>
        <pt x="504" y="-19" on="0"/>
        <pt x="350" y="-19" on="1"/>
      </contour>
      <contour>
        <pt x="200" y="263" on="0"/>
        <pt x="274" y="130" on="0"/>
        <pt x="350" y="130" on="1"/>
        <pt x="426" y="130" on="0"/>
        <pt x="500" y="263" on="0"/>
        <pt x="500" y="400" on="1"/>
        <pt x="500" y="537" on="0"/>
        <pt x="426" y="670" on="0"/>
        <pt x="350" y="670" on="1"/>
        <pt x="274" y="670" on="0"/>
        <pt x="200" y="537" on="0"/>
        <pt x="200" y="400" on="1"/>
      </contour>
    </TTGlyph>
    <TTGlyph name="P" xMin="95" yMin="0" xMax="666" yMax="800">
      <contour>
        <pt x="95" y="800" on="1"/>
        <pt x="411" y="800" on="1"/>
        <pt x="487" y="800" on="0"/>
        <pt x="603" y="739" on="0"/>
        <pt x="666" y="626" on="0"/>
        <pt x="666" y="551" on="1"/>
        <pt x="666" y="478" on="0"/>
        <pt x="603" y="369" on="0"/>
        <pt x="487" y="309" on="0"/>
        <pt x="411" y="309" on="1"/>
        <pt x="258" y="309" on="1"/>
        <pt x="258" y="0" on="1"/>
        <pt x="95" y="0" on="1"/>
      </contour>
      <contour>
        <pt x="397" y="457" on="1"/>
        <pt x="447" y="457" on="0"/>
        <pt x="504" y="506" on="0"/>
        <pt x="504" y="551" on="1"/>
        <pt x="504" y="595" on="0"/>
        <pt x="447" y="644" on="0"/>
        <pt x="397" y="644" on="1"/>
        <pt x="258" y="644" on="1"/>
        <pt x="258" y="457" on="1"/>
      </contour>
    </TTGlyph>
    <TTGlyph name="Q" xMin="38" yMin="-219" xMax="662" yMax="819">
      <contour>
        <pt x="426" y="130" on="0"/>
        <pt x="500" y="263" on="0"/>
        <pt x="500" y="400" on="1"/>
        <pt x="500" y="537" on="0"/>
        <pt x="426" y="670" on="0"/>
        <pt x="350" y="670" on="1"/>
        <pt x="274" y="670" on="0"/>
        <pt x="200" y="537" on="0"/>
        <pt x="200" y="400" on="1"/>
        <pt x="200" y="263" on="0"/>
        <pt x="274" y="130" on="0"/>
        <pt x="350" y="130" on="1"/>
      </contour>
      <contour>
        <pt x="38" y="607" on="0"/>
        <pt x="196" y="819" on="0"/>
        <pt x="350" y="819" on="1"/>
        <pt x="504" y="819" on="0"/>
        <pt x="662" y="607" on="0"/>
        <pt x="662" y="400" on="1"/>
        <pt x="662" y="211" on="0"/>
        <pt x="530" y="1" on="0"/>
        <pt x="402" y="-16" on="1"/>
        <pt x="626" y="-77" on="1"/>
        <pt x="626" y="-219" on="1"/>
        <pt x="330" y="-138" on="1"/>
        <pt x="330" y="-19" on="1"/>
        <pt x="186" y="-11" on="0"/>
        <pt x="38" y="200" on="0"/>
        <pt x="38" y="400" on="1"/>
      </contour>
    </TTGlyph>
    <TTGlyph name="R" xMin="84" yMin="0" xMax="675" yMax="800">
      <contour>
        <pt x="84" y="800" on="1"/>
        <pt x="396" y="800" on="1"/>
        <pt x="474" y="800" on="0"/>
        <pt x="591" y="739" on="0"/>
        <pt x="655" y="627" on="0"/>
        <pt x="655" y="553" on="1"/>
        <pt x="655" y="467" on="0"/>
        <pt x="560" y="350" on="0"/>
        <pt x="477" y="330" on="1"/>
        <pt x="675" y="0" on="1"/>
        <pt x="488" y="0" on="1"/>
        <pt x="306" y="321" on="1"/>
        <pt x="246" y="321" on="1"/>
        <pt x="246" y="0" on="1"/>
        <pt x="84" y="0" on="1"/>
      </contour>
      <contour>
        <pt x="382" y="461" on="1"/>
        <pt x="435" y="461" on="0"/>
        <pt x="493" y="509" on="0"/>
        <pt x="493" y="553" on="1"/>
        <pt x="493" y="597" on="0"/>
        <pt x="435" y="644" on="0"/>
        <pt x="382" y="644" on="1"/>
        <pt x="246" y="644" on="1"/>
        <pt x="246" y="461" on="1"/>
      </contour>
    </TTGlyph>
    <TTGlyph name="S" xMin="67" yMin="-19" xMax="656" yMax="819">
      <contour>
        <pt x="244" y="135" on="0"/>
        <pt x="358" y="135" on="1"/>
        <pt x="413" y="135" on="0"/>
        <pt x="474" y="185" on="0"/>
        <pt x="474" y="231" on="1"/>
        <pt x="474" y="268" on="0"/>
        <pt x="435" y="306" on="0"/>
        <pt x="393" y="312" on="1"/>
        <pt x="309" y="323" on="1"/>
        <pt x="191" y="340" on="0"/>
        <pt x="77" y="459" on="0"/>
        <pt x="77" y="565" on="1"/>
        <pt x="77" y="643" on="0"/>
        <pt x="146" y="758" on="0"/>
        <pt x="274" y="819" on="0"/>
        <pt x="361" y="819" on="1"/>
        <pt x="495" y="819" on="0"/>
        <pt x="648" y="687" on="0"/>
        <pt x="656" y="563" on="1"/>
        <pt x="493" y="563" on="1"/>
        <pt x="481" y="665" on="0"/>
        <pt x="361" y="665" on="1"/>
        <pt x="303" y="665" on="0"/>
        <pt x="240" y="614" on="0"/>
        <pt x="240" y="567" on="1"/>
        <pt x="240" y="531" on="0"/>
        <pt x="278" y="492" on="0"/>
        <pt x="321" y="486" on="1"/>
        <pt x="405" y="475" on="1"/>
        <pt x="523" y="459" on="0"/>
        <pt x="637" y="340" on="0"/>
        <pt x="637" y="233" on="1"/>
        <pt x="637" y="156" on="0"/>
        <pt x="569" y="42" on="0"/>
        <pt x="443" y="-19" on="0"/>
        <pt x="358" y="-19" on="1"/>
        <pt x="230" y="-19" on="0"/>
        <pt x="80" y="103" on="0"/>
        <pt x="67" y="217" on="1"/>
        <pt x="232" y="217" on="1"/>
      </contour>
    </TTGlyph>
    <TTGlyph name="T" xMin="58" yMin="0" xMax="642" yMax="800">
      <contour>
        <pt x="269" y="644" on="1"/>
        <pt x="58" y="644" on="1"/>
        <pt x="58" y="800" on="1"/>
        <pt x="642" y="800" on="1"/>
        <pt x="642" y="644" on="1"/>
        <pt x="431" y="644" on="1"/>
        <pt x="431" y="0" on="1"/>
        <pt x="269" y="0" on="1"/>
      </contour>
    </TTGlyph>
    <TTGlyph name="U" xMin="63" yMin="-19" xMax="637" yMax="800">
      <contour>
        <pt x="225" y="800" on="1"/>
        <pt x="225" y="279" on="1"/>
        <pt x="225" y="210" on="0"/>
        <pt x="290" y="137" on="0"/>
        <pt x="350" y="137" on="1"/>
        <pt x="410" y="137" on="0"/>
        <pt x="475" y="210" on="0"/>
        <pt x="475" y="279" on="1"/>
        <pt x="475" y="800" on="1"/>
        <pt x="637" y="800" on="1"/>
        <pt x="637" y="279" on="1"/>
        <pt x="637" y="137" on="0"/>
        <pt x="487" y="-19" on="0"/>
        <pt x="350" y="-19" on="1"/>
        <pt x="213" y="-19" on="0"/>
        <pt x="63" y="137" on="0"/>
        <pt x="63" y="279" on="1"/>
        <pt x="63" y="800" on="1"/>
      </contour>
    </TTGlyph>
    <TTGlyph name="V" xMin="32" yMin="0" xMax="668" yMax="800">
      <contour>
        <pt x="354" y="114" on="1"/>
        <pt x="503" y="800" on="1"/>
        <pt x="668" y="800" on="1"/>
        <pt x="485" y="0" on="1"/>
        <pt x="216" y="0" on="1"/>
        <pt x="32" y="800" on="1"/>
        <pt x="204" y="800" on="1"/>
      </contour>
    </TTGlyph>
    <TTGlyph name="W" xMin="16" yMin="0" xMax="684" yMax="800">
      <contour>
        <pt x="223" y="157" on="1"/>
        <pt x="267" y="613" on="1"/>
        <pt x="441" y="613" on="1"/>
        <pt x="483" y="163" on="1"/>
        <pt x="532" y="800" on="1"/>
        <pt x="684" y="800" on="1"/>
        <pt x="601" y="0" on="1"/>
        <pt x="399" y="0" on="1"/>
        <pt x="351" y="484" on="1"/>
        <pt x="300" y="0" on="1"/>
        <pt x="99" y="0" on="1"/>
        <pt x="16" y="800" on="1"/>
        <pt x="173" y="800" on="1"/>
      </contour>
    </TTGlyph>
    <TTGlyph name="X" xMin="35" yMin="0" xMax="665" yMax="800">
      <contour>
        <pt x="349" y="471" on="1"/>
        <pt x="491" y="800" on="1"/>
        <pt x="665" y="800" on="1"/>
        <pt x="479" y="389" on="1"/>
        <pt x="651" y="0" on="1"/>
        <pt x="469" y="0" on="1"/>
        <pt x="348" y="299" on="1"/>
        <pt x="224" y="0" on="1"/>
        <pt x="48" y="0" on="1"/>
        <pt x="220" y="389" on="1"/>
        <pt x="35" y="800" on="1"/>
        <pt x="215" y="800" on="1"/>
      </contour>
    </TTGlyph>
    <TTGlyph name="Y" xMin="24" yMin="0" xMax="680" yMax="800">
      <contour>
        <pt x="353" y="467" on="1"/>
        <pt x="508" y="800" on="1"/>
        <pt x="680" y="800" on="1"/>
        <pt x="433" y="310" on="1"/>
        <pt x="433" y="0" on="1"/>
        <pt x="270" y="0" on="1"/>
        <pt x="270" y="310" on="1"/>
        <pt x="24" y="800" on="1"/>
        <pt x="199" y="800" on="1"/>
      </contour>
    </TTGlyph>
    <TTGlyph name="Z" xMin="88" yMin="0" xMax="612" yMax="800">
      <contour>
        <pt x="88" y="267" on="1"/>
        <pt x="505" y="644" on="1"/>
        <pt x="88" y="644" on="1"/>
        <pt x="88" y="800" on="1"/>
        <pt x="612" y="800" on="1"/>
        <pt x="612" y="533" on="1"/>
        <pt x="195" y="156" on="1"/>
        <pt x="612" y="156" on="1"/>
        <pt x="612" y="0" on="1"/>
        <pt x="88" y="0" on="1"/>
      </contour>
    </TTGlyph>
    <TTGlyph name="_part.multiply" xMin="83" yMin="83" xMax="617" yMax="617">
      <contour>
        <pt x="83" y="527" on="1"/>
        <pt x="172" y="617" on="1"/>
        <pt x="617" y="173" on="1"/>
        <pt x="527" y="83" on="1"/>
      </contour>
    </TTGlyph>
    <TTGlyph name="a" xMin="54" yMin="-18" xMax="601" yMax="632">
      <contour>
        <pt x="65" y="504" on="0"/>
        <pt x="217" y="632" on="0"/>
        <pt x="340" y="632" on="1"/>
        <pt x="464" y="632" on="0"/>
        <pt x="601" y="513" on="0"/>
        <pt x="601" y="406" on="1"/>
        <pt x="601" y="0" on="1"/>
        <pt x="445" y="0" on="1"/>
        <pt x="445" y="81" on="1"/>
        <pt x="409" y="81" on="1"/>
        <pt x="396" y="33" on="0"/>
        <pt x="320" y="-18" on="0"/>
        <pt x="263" y="-18" on="1"/>
        <pt x="182" y="-18" on="0"/>
        <pt x="84" y="81" on="0"/>
        <pt x="84" y="162" on="1"/>
        <pt x="84" y="241" on="0"/>
        <pt x="181" y="338" on="0"/>
        <pt x="276" y="354" on="1"/>
        <pt x="445" y="381" on="1"/>
        <pt x="445" y="388" on="1"/>
        <pt x="445" y="440" on="0"/>
        <pt x="392" y="493" on="0"/>
        <pt x="340" y="493" on="1"/>
        <pt x="285" y="493" on="0"/>
        <pt x="220" y="441" on="0"/>
        <pt x="214" y="393" on="1"/>
        <pt x="54" y="393" on="1"/>
      </contour>
      <contour>
        <pt x="242" y="141" on="0"/>
        <pt x="280" y="110" on="0"/>
        <pt x="317" y="110" on="1"/>
        <pt x="371" y="110" on="0"/>
        <pt x="445" y="182" on="0"/>
        <pt x="445" y="234" on="1"/>
        <pt x="445" y="258" on="1"/>
        <pt x="312" y="237" on="1"/>
        <pt x="242" y="225" on="0"/>
        <pt x="242" y="170" on="1"/>
      </contour>
    </TTGlyph>
    <TTGlyph name="ampersand" xMin="61" yMin="-28" xMax="639" yMax="819">
      <contour>
        <pt x="61" y="285" on="0"/>
        <pt x="139" y="390" on="0"/>
        <pt x="208" y="438" on="1"/>
        <pt x="163" y="491" on="0"/>
        <pt x="121" y="580" on="0"/>
        <pt x="121" y="624" on="1"/>
        <pt x="121" y="713" on="0"/>
        <pt x="227" y="819" on="0"/>
        <pt x="316" y="819" on="1"/>
        <pt x="405" y="819" on="0"/>
        <pt x="511" y="713" on="0"/>
        <pt x="511" y="624" on="1"/>
        <pt x="511" y="558" on="0"/>
        <pt x="452" y="464" on="0"/>
        <pt x="399" y="421" on="1"/>
        <pt x="474" y="341" on="1"/>
        <pt x="480" y="387" on="0"/>
        <pt x="481" y="415" on="1"/>
        <pt x="618" y="415" on="1"/>
        <pt x="609" y="300" on="0"/>
        <pt x="586" y="222" on="1"/>
        <pt x="639" y="166" on="1"/>
        <pt x="639" y="-28" on="1"/>
        <pt x="527" y="93" on="1"/>
        <pt x="449" y="-19" on="0"/>
        <pt x="307" y="-19" on="1"/>
        <pt x="234" y="-19" on="0"/>
        <pt x="122" y="37" on="0"/>
        <pt x="61" y="138" on="0"/>
        <pt x="61" y="204" on="1"/>
      </contour>
      <contour>
        <pt x="226" y="183" on="0"/>
        <pt x="275" y="135" on="0"/>
        <pt x="315" y="135" on="1"/>
        <pt x="389" y="135" on="0"/>
        <pt x="429" y="199" on="1"/>
        <pt x="295" y="343" on="1"/>
        <pt x="262" y="316" on="0"/>
        <pt x="226" y="259" on="0"/>
        <pt x="226" y="223" on="1"/>
      </contour>
      <contour>
        <pt x="271" y="581" on="0"/>
        <pt x="290" y="536" on="0"/>
        <pt x="312" y="513" on="1"/>
        <pt x="336" y="535" on="0"/>
        <pt x="361" y="580" on="0"/>
        <pt x="361" y="607" on="1"/>
        <pt x="361" y="634" on="0"/>
        <pt x="337" y="665" on="0"/>
        <pt x="316" y="665" on="1"/>
        <pt x="295" y="665" on="0"/>
        <pt x="271" y="634" on="0"/>
        <pt x="271" y="607" on="1"/>
      </contour>
    </TTGlyph>
    <TTGlyph name="approxequal" xMin="80" yMin="89" xMax="620" yMax="611">
      <component glyphName="asciitilde" x="0" y="132" flags="0x4"/>
      <component glyphName="asciitilde" x="0" y="-132" flags="0x4"/>
    </TTGlyph>
    <TTGlyph name="approxequal.case" xMin="80" yMin="139" xMax="620" yMax="661">
      <component glyphName="approxequal" x="0" y="50" flags="0x4"/>
    </TTGlyph>
    <TTGlyph name="asciicircum" xMin="84" yMin="503" xMax="618" yMax="819">
      <contour>
        <pt x="259" y="819" on="1"/>
        <pt x="444" y="819" on="1"/>
        <pt x="618" y="503" on="1"/>
        <pt x="464" y="503" on="1"/>
        <pt x="351" y="716" on="1"/>
        <pt x="238" y="503" on="1"/>
        <pt x="84" y="503" on="1"/>
      </contour>
    </TTGlyph>
    <TTGlyph name="asciitilde" xMin="80" yMin="221" xMax="620" yMax="479">
      <contour>
        <pt x="407" y="221" on="0"/>
        <pt x="343" y="264" on="0"/>
        <pt x="308" y="302" on="1"/>
        <pt x="287" y="326" on="0"/>
        <pt x="258" y="349" on="0"/>
        <pt x="241" y="349" on="1"/>
        <pt x="220" y="349" on="0"/>
        <pt x="193" y="311" on="0"/>
        <pt x="189" y="276" on="1"/>
        <pt x="80" y="276" on="1"/>
        <pt x="88" y="373" on="0"/>
        <pt x="173" y="479" on="0"/>
        <pt x="244" y="479" on="1"/>
        <pt x="293" y="479" on="0"/>
        <pt x="357" y="436" on="0"/>
        <pt x="392" y="398" on="1"/>
        <pt x="413" y="374" on="0"/>
        <pt x="442" y="351" on="0"/>
        <pt x="459" y="351" on="1"/>
        <pt x="480" y="351" on="0"/>
        <pt x="507" y="389" on="0"/>
        <pt x="511" y="424" on="1"/>
        <pt x="620" y="424" on="1"/>
        <pt x="612" y="327" on="0"/>
        <pt x="527" y="221" on="0"/>
        <pt x="456" y="221" on="1"/>
      </contour>
    </TTGlyph>
    <TTGlyph name="asciitilde.case" xMin="80" yMin="271" xMax="620" yMax="529">
      <component glyphName="asciitilde" x="0" y="50" flags="0x4"/>
    </TTGlyph>
    <TTGlyph name="asterisk" xMin="97" yMin="336" xMax="603" yMax="818">
      <contour>
        <pt x="428" y="818" on="1"/>
        <pt x="408" y="656" on="1"/>
        <pt x="555" y="726" on="1"/>
        <pt x="603" y="578" on="1"/>
        <pt x="443" y="547" on="1"/>
        <pt x="555" y="428" on="1"/>
        <pt x="429" y="336" on="1"/>
        <pt x="350" y="479" on="1"/>
        <pt x="271" y="336" on="1"/>
        <pt x="145" y="428" on="1"/>
        <pt x="257" y="547" on="1"/>
        <pt x="97" y="578" on="1"/>
        <pt x="145" y="726" on="1"/>
        <pt x="292" y="656" on="1"/>
        <pt x="272" y="818" on="1"/>
      </contour>
    </TTGlyph>
    <TTGlyph name="at" xMin="40" yMin="-138" xMax="648" yMax="819">
      <contour>
        <pt x="40" y="-138" on="0"/>
        <pt x="40" y="340" on="1"/>
        <pt x="40" y="579" on="0"/>
        <pt x="206" y="819" on="0"/>
        <pt x="370" y="819" on="1"/>
        <pt x="648" y="819" on="0"/>
        <pt x="648" y="511" on="1"/>
        <pt x="648" y="111" on="1"/>
        <pt x="531" y="111" on="1"/>
        <pt x="531" y="182" on="1"/>
        <pt x="495" y="182" on="1"/>
        <pt x="482" y="92" on="0"/>
        <pt x="391" y="92" on="1"/>
        <pt x="247" y="92" on="0"/>
        <pt x="247" y="340" on="1"/>
        <pt x="247" y="588" on="0"/>
        <pt x="391" y="588" on="1"/>
        <pt x="474" y="588" on="0"/>
        <pt x="487" y="498" on="1"/>
        <pt x="524" y="498" on="1"/>
        <pt x="524" y="511" on="1"/>
        <pt x="524" y="691" on="0"/>
        <pt x="370" y="691" on="1"/>
        <pt x="168" y="691" on="0"/>
        <pt x="168" y="340" on="1"/>
        <pt x="168" y="-12" on="0"/>
        <pt x="371" y="-12" on="1"/>
        <pt x="452" y="-12" on="0"/>
        <pt x="495" y="12" on="1"/>
        <pt x="495" y="-110" on="1"/>
        <pt x="451" y="-138" on="0"/>
        <pt x="369" y="-138" on="1"/>
      </contour>
      <contour>
        <pt x="375" y="218" on="0"/>
        <pt x="451" y="218" on="1"/>
        <pt x="528" y="218" on="0"/>
        <pt x="528" y="340" on="1"/>
        <pt x="528" y="462" on="0"/>
        <pt x="451" y="462" on="1"/>
        <pt x="375" y="462" on="0"/>
        <pt x="375" y="340" on="1"/>
      </contour>
    </TTGlyph>
    <TTGlyph name="b" xMin="82" yMin="-16" xMax="659" yMax="848">
      <contour>
        <pt x="365" y="-16" on="0"/>
        <pt x="285" y="42" on="0"/>
        <pt x="275" y="93" on="1"/>
        <pt x="238" y="93" on="1"/>
        <pt x="238" y="0" on="1"/>
        <pt x="82" y="0" on="1"/>
        <pt x="82" y="848" on="1"/>
        <pt x="238" y="848" on="1"/>
        <pt x="238" y="520" on="1"/>
        <pt x="275" y="520" on="1"/>
        <pt x="285" y="571" on="0"/>
        <pt x="365" y="629" on="0"/>
        <pt x="424" y="629" on="1"/>
        <pt x="495" y="629" on="0"/>
        <pt x="601" y="551" on="0"/>
        <pt x="659" y="405" on="0"/>
        <pt x="659" y="307" on="1"/>
        <pt x="659" y="209" on="0"/>
        <pt x="601" y="63" on="0"/>
        <pt x="495" y="-16" on="0"/>
        <pt x="424" y="-16" on="1"/>
      </contour>
      <contour>
        <pt x="228" y="218" on="0"/>
        <pt x="301" y="120" on="0"/>
        <pt x="367" y="120" on="1"/>
        <pt x="433" y="120" on="0"/>
        <pt x="506" y="218" on="0"/>
        <pt x="506" y="307" on="1"/>
        <pt x="506" y="395" on="0"/>
        <pt x="432" y="493" on="0"/>
        <pt x="367" y="493" on="1"/>
        <pt x="301" y="493" on="0"/>
        <pt x="228" y="395" on="0"/>
        <pt x="228" y="307" on="1"/>
      </contour>
    </TTGlyph>
    <TTGlyph name="backslash" xMin="101" yMin="-170" xMax="599" yMax="848">
      <contour>
        <pt x="252" y="848" on="1"/>
        <pt x="599" y="-170" on="1"/>
        <pt x="448" y="-170" on="1"/>
        <pt x="101" y="848" on="1"/>
      </contour>
    </TTGlyph>
    <TTGlyph name="bar" xMin="285" yMin="-60" xMax="415" yMax="860">
      <contour>
        <pt x="415" y="-60" on="1"/>
        <pt x="285" y="-60" on="1"/>
        <pt x="285" y="860" on="1"/>
        <pt x="415" y="860" on="1"/>
      </contour>
    </TTGlyph>
    <TTGlyph name="braceleft" xMin="219" yMin="-201" xMax="573" yMax="961">
      <contour>
        <pt x="511" y="815" on="0"/>
        <pt x="445" y="752" on="0"/>
        <pt x="445" y="699" on="1"/>
        <pt x="445" y="668" on="0"/>
        <pt x="454" y="621" on="1"/>
        <pt x="455" y="615" on="0"/>
        <pt x="463" y="560" on="0"/>
        <pt x="463" y="532" on="1"/>
        <pt x="463" y="467" on="0"/>
        <pt x="394" y="392" on="0"/>
        <pt x="328" y="387" on="1"/>
        <pt x="328" y="373" on="1"/>
        <pt x="394" y="368" on="0"/>
        <pt x="463" y="293" on="0"/>
        <pt x="463" y="228" on="1"/>
        <pt x="463" y="200" on="0"/>
        <pt x="455" y="145" on="0"/>
        <pt x="454" y="139" on="1"/>
        <pt x="445" y="92" on="0"/>
        <pt x="445" y="61" on="1"/>
        <pt x="445" y="8" on="0"/>
        <pt x="511" y="-55" on="0"/>
        <pt x="573" y="-61" on="1"/>
        <pt x="573" y="-201" on="1"/>
        <pt x="441" y="-196" on="0"/>
        <pt x="292" y="-62" on="0"/>
        <pt x="292" y="51" on="1"/>
        <pt x="292" y="86" on="0"/>
        <pt x="302" y="136" on="1"/>
        <pt x="310" y="180" on="0"/>
        <pt x="310" y="203" on="1"/>
        <pt x="310" y="254" on="0"/>
        <pt x="266" y="303" on="0"/>
        <pt x="219" y="302" on="1"/>
        <pt x="219" y="458" on="1"/>
        <pt x="266" y="457" on="0"/>
        <pt x="310" y="506" on="0"/>
        <pt x="310" y="557" on="1"/>
        <pt x="310" y="580" on="0"/>
        <pt x="302" y="624" on="1"/>
        <pt x="292" y="674" on="0"/>
        <pt x="292" y="709" on="1"/>
        <pt x="292" y="822" on="0"/>
        <pt x="441" y="956" on="0"/>
        <pt x="573" y="961" on="1"/>
        <pt x="573" y="821" on="1"/>
      </contour>
    </TTGlyph>
    <TTGlyph name="braceright" xMin="127" yMin="-201" xMax="481" yMax="961">
      <contour>
        <pt x="259" y="956" on="0"/>
        <pt x="408" y="822" on="0"/>
        <pt x="408" y="709" on="1"/>
        <pt x="408" y="674" on="0"/>
        <pt x="398" y="624" on="1"/>
        <pt x="390" y="580" on="0"/>
        <pt x="390" y="557" on="1"/>
        <pt x="390" y="506" on="0"/>
        <pt x="434" y="457" on="0"/>
        <pt x="481" y="458" on="1"/>
        <pt x="481" y="302" on="1"/>
        <pt x="434" y="303" on="0"/>
        <pt x="390" y="254" on="0"/>
        <pt x="390" y="203" on="1"/>
        <pt x="390" y="180" on="0"/>
        <pt x="398" y="136" on="1"/>
        <pt x="408" y="86" on="0"/>
        <pt x="408" y="51" on="1"/>
        <pt x="408" y="-62" on="0"/>
        <pt x="259" y="-196" on="0"/>
        <pt x="127" y="-201" on="1"/>
        <pt x="127" y="-61" on="1"/>
        <pt x="189" y="-55" on="0"/>
        <pt x="255" y="8" on="0"/>
        <pt x="255" y="61" on="1"/>
        <pt x="255" y="92" on="0"/>
        <pt x="246" y="139" on="1"/>
        <pt x="245" y="145" on="0"/>
        <pt x="237" y="200" on="0"/>
        <pt x="237" y="228" on="1"/>
        <pt x="237" y="293" on="0"/>
        <pt x="306" y="368" on="0"/>
        <pt x="372" y="373" on="1"/>
        <pt x="372" y="387" on="1"/>
        <pt x="306" y="392" on="0"/>
        <pt x="237" y="467" on="0"/>
        <pt x="237" y="532" on="1"/>
        <pt x="237" y="560" on="0"/>
        <pt x="245" y="615" on="0"/>
        <pt x="246" y="621" on="1"/>
        <pt x="255" y="668" on="0"/>
        <pt x="255" y="699" on="1"/>
        <pt x="255" y="752" on="0"/>
        <pt x="189" y="815" on="0"/>
        <pt x="127" y="821" on="1"/>
        <pt x="127" y="961" on="1"/>
      </contour>
    </TTGlyph>
    <TTGlyph name="bracketleft" xMin="278" yMin="-183" xMax="573" yMax="943">
      <contour>
        <pt x="573" y="809" on="1"/>
        <pt x="424" y="809" on="1"/>
        <pt x="424" y="-49" on="1"/>
        <pt x="573" y="-49" on="1"/>
        <pt x="573" y="-183" on="1"/>
        <pt x="278" y="-183" on="1"/>
        <pt x="278" y="943" on="1"/>
        <pt x="573" y="943" on="1"/>
      </contour>
    </TTGlyph>
    <TTGlyph name="bracketright" xMin="127" yMin="-183" xMax="422" yMax="943">
      <contour>
        <pt x="422" y="943" on="1"/>
        <pt x="422" y="-183" on="1"/>
        <pt x="127" y="-183" on="1"/>
        <pt x="127" y="-49" on="1"/>
        <pt x="276" y="-49" on="1"/>
        <pt x="276" y="809" on="1"/>
        <pt x="127" y="809" on="1"/>
        <pt x="127" y="943" on="1"/>
      </contour>
    </TTGlyph>
    <TTGlyph name="bullet" xMin="125" yMin="125" xMax="575" yMax="575">
      <contour>
        <pt x="241" y="125" on="0"/>
        <pt x="125" y="241" on="0"/>
        <pt x="125" y="350" on="1"/>
        <pt x="125" y="459" on="0"/>
        <pt x="241" y="575" on="0"/>
        <pt x="350" y="575" on="1"/>
        <pt x="459" y="575" on="0"/>
        <pt x="575" y="459" on="0"/>
        <pt x="575" y="350" on="1"/>
        <pt x="575" y="241" on="0"/>
        <pt x="459" y="125" on="0"/>
        <pt x="350" y="125" on="1"/>
      </contour>
    </TTGlyph>
    <TTGlyph name="c" xMin="76" yMin="-19" xMax="646" yMax="632">
      <contour>
        <pt x="279" y="-19" on="0"/>
        <pt x="147" y="60" on="0"/>
        <pt x="76" y="206" on="0"/>
        <pt x="76" y="304" on="1"/>
        <pt x="76" y="404" on="0"/>
        <pt x="148" y="552" on="0"/>
        <pt x="282" y="632" on="0"/>
        <pt x="372" y="632" on="1"/>
        <pt x="451" y="632" on="0"/>
        <pt x="572" y="566" on="0"/>
        <pt x="642" y="444" on="0"/>
        <pt x="646" y="363" on="1"/>
        <pt x="499" y="363" on="1"/>
        <pt x="493" y="424" on="0"/>
        <pt x="425" y="493" on="0"/>
        <pt x="371" y="493" on="1"/>
        <pt x="303" y="493" on="0"/>
        <pt x="227" y="393" on="0"/>
        <pt x="227" y="304" on="1"/>
        <pt x="227" y="217" on="0"/>
        <pt x="301" y="121" on="0"/>
        <pt x="367" y="121" on="1"/>
        <pt x="417" y="121" on="0"/>
        <pt x="479" y="178" on="0"/>
        <pt x="486" y="230" on="1"/>
        <pt x="633" y="230" on="1"/>
        <pt x="627" y="155" on="0"/>
        <pt x="558" y="42" on="0"/>
        <pt x="441" y="-19" on="0"/>
        <pt x="367" y="-19" on="1"/>
      </contour>
    </TTGlyph>
    <TTGlyph name="cent" xMin="76" yMin="-93" xMax="646" yMax="707">
      <contour>
        <pt x="430" y="707" on="1"/>
        <pt x="430" y="627" on="1"/>
        <pt x="525" y="610" on="0"/>
        <pt x="640" y="470" on="0"/>
        <pt x="646" y="363" on="1"/>
        <pt x="499" y="363" on="1"/>
        <pt x="493" y="424" on="0"/>
        <pt x="425" y="493" on="0"/>
        <pt x="371" y="493" on="1"/>
        <pt x="303" y="493" on="0"/>
        <pt x="227" y="393" on="0"/>
        <pt x="227" y="304" on="1"/>
        <pt x="227" y="217" on="0"/>
        <pt x="301" y="121" on="0"/>
        <pt x="367" y="121" on="1"/>
        <pt x="417" y="121" on="0"/>
        <pt x="479" y="178" on="0"/>
        <pt x="486" y="230" on="1"/>
        <pt x="633" y="230" on="1"/>
        <pt x="626" y="133" on="0"/>
        <pt x="518" y="5" on="0"/>
        <pt x="430" y="-13" on="1"/>
        <pt x="430" y="-93" on="1"/>
        <pt x="298" y="-93" on="1"/>
        <pt x="298" y="-12" on="1"/>
        <pt x="194" y="9" on="0"/>
        <pt x="76" y="176" on="0"/>
        <pt x="76" y="304" on="1"/>
        <pt x="76" y="432" on="0"/>
        <pt x="194" y="601" on="0"/>
        <pt x="298" y="624" on="1"/>
        <pt x="298" y="707" on="1"/>
      </contour>
    </TTGlyph>
    <TTGlyph name="cent.bold" xMin="76" yMin="-93" xMax="646" yMax="707">
      <contour>
        <pt x="305" y="-14" on="1"/>
        <pt x="198" y="6" on="0"/>
        <pt x="76" y="174" on="0"/>
        <pt x="76" y="304" on="1"/>
        <pt x="76" y="435" on="0"/>
        <pt x="198" y="605" on="0"/>
        <pt x="305" y="626" on="1"/>
        <pt x="305" y="707" on="1"/>
        <pt x="422" y="707" on="1"/>
        <pt x="422" y="628" on="1"/>
        <pt x="521" y="613" on="0"/>
        <pt x="640" y="472" on="0"/>
        <pt x="646" y="363" on="1"/>
        <pt x="499" y="363" on="1"/>
        <pt x="495" y="408" on="0"/>
        <pt x="455" y="470" on="0"/>
        <pt x="422" y="484" on="1"/>
        <pt x="422" y="132" on="1"/>
        <pt x="448" y="145" on="0"/>
        <pt x="482" y="195" on="0"/>
        <pt x="486" y="230" on="1"/>
        <pt x="633" y="230" on="1"/>
        <pt x="626" y="131" on="0"/>
        <pt x="513" y="2" on="0"/>
        <pt x="422" y="-14" on="1"/>
        <pt x="422" y="-93" on="1"/>
        <pt x="305" y="-93" on="1"/>
      </contour>
      <contour>
        <pt x="227" y="240" on="0"/>
        <pt x="267" y="154" on="0"/>
        <pt x="305" y="135" on="1"/>
        <pt x="305" y="478" on="1"/>
        <pt x="267" y="458" on="0"/>
        <pt x="227" y="368" on="0"/>
        <pt x="227" y="304" on="1"/>
      </contour>
    </TTGlyph>
    <TTGlyph name="colon" xMin="228" yMin="-11" xMax="472" yMax="623">
      <component glyphName="period" x="0" y="0" flags="0x0"/>
      <component glyphName="period" x="0" y="388" flags="0x4"/>
    </TTGlyph>
    <TTGlyph name="colon.case" xMin="228" yMin="82" xMax="472" yMax="716">
      <component glyphName="colon" x="0" y="93" flags="0x4"/>
    </TTGlyph>
    <TTGlyph name="comma" xMin="215" yMin="-187" xMax="484" yMax="235">
      <contour>
        <pt x="291" y="-11" on="0"/>
        <pt x="228" y="53" on="0"/>
        <pt x="228" y="112" on="1"/>
        <pt x="228" y="172" on="0"/>
        <pt x="291" y="235" on="0"/>
        <pt x="350" y="235" on="1"/>
        <pt x="418" y="235" on="0"/>
        <pt x="484" y="156" on="0"/>
        <pt x="484" y="75" on="1"/>
        <pt x="484" y="-77" on="0"/>
        <pt x="408" y="-187" on="1"/>
        <pt x="215" y="-187" on="1"/>
        <pt x="349" y="-113" on="0"/>
        <pt x="377" y="-9" on="1"/>
        <pt x="359" y="-11" on="0"/>
        <pt x="350" y="-11" on="1"/>
      </contour>
    </TTGlyph>
    <TTGlyph name="copyright" xMin="38" yMin="72" xMax="662" yMax="728">
      <contour>
        <pt x="260" y="72" on="0"/>
        <pt x="118" y="155" on="0"/>
        <pt x="38" y="305" on="0"/>
        <pt x="38" y="400" on="1"/>
        <pt x="38" y="495" on="0"/>
        <pt x="118" y="645" on="0"/>
        <pt x="260" y="728" on="0"/>
        <pt x="350" y="728" on="1"/>
        <pt x="440" y="728" on="0"/>
        <pt x="582" y="645" on="0"/>
        <pt x="662" y="495" on="0"/>
        <pt x="662" y="400" on="1"/>
        <pt x="662" y="305" on="0"/>
        <pt x="582" y="155" on="0"/>
        <pt x="440" y="72" on="0"/>
        <pt x="350" y="72" on="1"/>
      </contour>
      <contour>
        <pt x="137" y="331" on="0"/>
        <pt x="190" y="227" on="0"/>
        <pt x="287" y="170" on="0"/>
        <pt x="350" y="170" on="1"/>
        <pt x="413" y="170" on="0"/>
        <pt x="510" y="227" on="0"/>
        <pt x="563" y="331" on="0"/>
        <pt x="563" y="400" on="1"/>
        <pt x="563" y="469" on="0"/>
        <pt x="510" y="573" on="0"/>
        <pt x="413" y="630" on="0"/>
        <pt x="350" y="630" on="1"/>
        <pt x="287" y="630" on="0"/>
        <pt x="190" y="573" on="0"/>
        <pt x="137" y="469" on="0"/>
        <pt x="137" y="400" on="1"/>
      </contour>
      <contour>
        <pt x="191" y="482" on="0"/>
        <pt x="280" y="580" on="0"/>
        <pt x="354" y="580" on="1"/>
        <pt x="418" y="580" on="0"/>
        <pt x="502" y="501" on="0"/>
        <pt x="511" y="431" on="1"/>
        <pt x="411" y="431" on="1"/>
        <pt x="407" y="457" on="0"/>
        <pt x="377" y="485" on="0"/>
        <pt x="353" y="485" on="1"/>
        <pt x="324" y="485" on="0"/>
        <pt x="291" y="440" on="0"/>
        <pt x="291" y="400" on="1"/>
        <pt x="291" y="362" on="0"/>
        <pt x="324" y="318" on="0"/>
        <pt x="353" y="318" on="1"/>
        <pt x="373" y="318" on="0"/>
        <pt x="399" y="341" on="0"/>
        <pt x="401" y="362" on="1"/>
        <pt x="502" y="362" on="1"/>
        <pt x="496" y="300" on="0"/>
        <pt x="414" y="223" on="0"/>
        <pt x="353" y="223" on="1"/>
        <pt x="281" y="223" on="0"/>
        <pt x="191" y="321" on="0"/>
        <pt x="191" y="400" on="1"/>
      </contour>
    </TTGlyph>
    <TTGlyph name="currency" xMin="77" yMin="77" xMax="623" yMax="623">
      <contour>
        <pt x="289" y="117" on="0"/>
        <pt x="238" y="145" on="1"/>
        <pt x="170" y="77" on="1"/>
        <pt x="77" y="170" on="1"/>
        <pt x="145" y="238" on="1"/>
        <pt x="117" y="289" on="0"/>
        <pt x="117" y="350" on="1"/>
        <pt x="117" y="411" on="0"/>
        <pt x="145" y="462" on="1"/>
        <pt x="77" y="530" on="1"/>
        <pt x="170" y="623" on="1"/>
        <pt x="238" y="555" on="1"/>
        <pt x="289" y="583" on="0"/>
        <pt x="350" y="583" on="1"/>
        <pt x="411" y="583" on="0"/>
        <pt x="462" y="555" on="1"/>
        <pt x="530" y="623" on="1"/>
        <pt x="623" y="530" on="1"/>
        <pt x="555" y="462" on="1"/>
        <pt x="583" y="411" on="0"/>
        <pt x="583" y="350" on="1"/>
        <pt x="583" y="289" on="0"/>
        <pt x="555" y="238" on="1"/>
        <pt x="623" y="170" on="1"/>
        <pt x="530" y="77" on="1"/>
        <pt x="462" y="145" on="1"/>
        <pt x="411" y="117" on="0"/>
        <pt x="350" y="117" on="1"/>
      </contour>
      <contour>
        <pt x="253" y="310" on="0"/>
        <pt x="310" y="253" on="0"/>
        <pt x="350" y="253" on="1"/>
        <pt x="391" y="253" on="0"/>
        <pt x="447" y="310" on="0"/>
        <pt x="447" y="350" on="1"/>
        <pt x="447" y="391" on="0"/>
        <pt x="391" y="447" on="0"/>
        <pt x="350" y="447" on="1"/>
        <pt x="310" y="447" on="0"/>
        <pt x="253" y="391" on="0"/>
        <pt x="253" y="350" on="1"/>
      </contour>
    </TTGlyph>
    <TTGlyph name="d" xMin="41" yMin="-16" xMax="618" yMax="848">
      <contour>
        <pt x="205" y="-16" on="0"/>
        <pt x="99" y="63" on="0"/>
        <pt x="41" y="209" on="0"/>
        <pt x="41" y="307" on="1"/>
        <pt x="41" y="405" on="0"/>
        <pt x="99" y="551" on="0"/>
        <pt x="205" y="629" on="0"/>
        <pt x="276" y="629" on="1"/>
        <pt x="335" y="629" on="0"/>
        <pt x="415" y="571" on="0"/>
        <pt x="425" y="520" on="1"/>
        <pt x="462" y="520" on="1"/>
        <pt x="462" y="848" on="1"/>
        <pt x="618" y="848" on="1"/>
        <pt x="618" y="0" on="1"/>
        <pt x="462" y="0" on="1"/>
        <pt x="462" y="93" on="1"/>
        <pt x="425" y="93" on="1"/>
        <pt x="415" y="42" on="0"/>
        <pt x="335" y="-16" on="0"/>
        <pt x="276" y="-16" on="1"/>
      </contour>
      <contour>
        <pt x="194" y="218" on="0"/>
        <pt x="267" y="120" on="0"/>
        <pt x="333" y="120" on="1"/>
        <pt x="399" y="120" on="0"/>
        <pt x="472" y="218" on="0"/>
        <pt x="472" y="307" on="1"/>
        <pt x="472" y="395" on="0"/>
        <pt x="399" y="493" on="0"/>
        <pt x="333" y="493" on="1"/>
        <pt x="268" y="493" on="0"/>
        <pt x="194" y="395" on="0"/>
        <pt x="194" y="307" on="1"/>
      </contour>
    </TTGlyph>
    <TTGlyph name="divide" xMin="65" yMin="38" xMax="635" yMax="662">
      <component glyphName="minus" x="0" y="0" flags="0x0"/>
      <component glyphName="uni0307" x="266" y="-210" flags="0x4"/>
      <component glyphName="uni0307" x="266" y="-654" flags="0x4"/>
    </TTGlyph>
    <TTGlyph name="divide.case" xMin="65" yMin="88" xMax="635" yMax="712">
      <component glyphName="divide" x="0" y="50" flags="0x4"/>
    </TTGlyph>
    <TTGlyph name="dollar" xMin="67" yMin="-100" xMax="656" yMax="900">
      <contour>
        <pt x="244" y="135" on="0"/>
        <pt x="358" y="135" on="1"/>
        <pt x="413" y="135" on="0"/>
        <pt x="474" y="185" on="0"/>
        <pt x="474" y="231" on="1"/>
        <pt x="474" y="268" on="0"/>
        <pt x="435" y="306" on="0"/>
        <pt x="393" y="312" on="1"/>
        <pt x="309" y="323" on="1"/>
        <pt x="191" y="340" on="0"/>
        <pt x="77" y="459" on="0"/>
        <pt x="77" y="565" on="1"/>
        <pt x="77" y="666" on="0"/>
        <pt x="192" y="797" on="0"/>
        <pt x="294" y="814" on="1"/>
        <pt x="294" y="900" on="1"/>
        <pt x="427" y="900" on="1"/>
        <pt x="427" y="814" on="1"/>
        <pt x="531" y="799" on="0"/>
        <pt x="649" y="671" on="0"/>
        <pt x="656" y="563" on="1"/>
        <pt x="493" y="563" on="1"/>
        <pt x="481" y="665" on="0"/>
        <pt x="361" y="665" on="1"/>
        <pt x="303" y="665" on="0"/>
        <pt x="240" y="614" on="0"/>
        <pt x="240" y="567" on="1"/>
        <pt x="240" y="531" on="0"/>
        <pt x="278" y="492" on="0"/>
        <pt x="321" y="486" on="1"/>
        <pt x="405" y="475" on="1"/>
        <pt x="523" y="459" on="0"/>
        <pt x="637" y="340" on="0"/>
        <pt x="637" y="233" on="1"/>
        <pt x="637" y="133" on="0"/>
        <pt x="526" y="4" on="0"/>
        <pt x="427" y="-13" on="1"/>
        <pt x="427" y="-100" on="1"/>
        <pt x="294" y="-100" on="1"/>
        <pt x="294" y="-15" on="1"/>
        <pt x="194" y="-1" on="0"/>
        <pt x="78" y="118" on="0"/>
        <pt x="67" y="217" on="1"/>
        <pt x="232" y="217" on="1"/>
      </contour>
    </TTGlyph>
    <TTGlyph name="dollar.bold" xMin="67" yMin="-100" xMax="656" yMax="900">
      <contour>
        <pt x="239" y="162" on="0"/>
        <pt x="294" y="144" on="1"/>
        <pt x="294" y="325" on="1"/>
        <pt x="184" y="344" on="0"/>
        <pt x="77" y="462" on="0"/>
        <pt x="77" y="565" on="1"/>
        <pt x="77" y="666" on="0"/>
        <pt x="192" y="797" on="0"/>
        <pt x="294" y="814" on="1"/>
        <pt x="294" y="900" on="1"/>
        <pt x="427" y="900" on="1"/>
        <pt x="427" y="814" on="1"/>
        <pt x="531" y="799" on="0"/>
        <pt x="649" y="671" on="0"/>
        <pt x="656" y="563" on="1"/>
        <pt x="493" y="563" on="1"/>
        <pt x="485" y="633" on="0"/>
        <pt x="427" y="654" on="1"/>
        <pt x="427" y="472" on="1"/>
        <pt x="533" y="453" on="0"/>
        <pt x="637" y="334" on="0"/>
        <pt x="637" y="233" on="1"/>
        <pt x="637" y="133" on="0"/>
        <pt x="526" y="4" on="0"/>
        <pt x="427" y="-13" on="1"/>
        <pt x="427" y="-100" on="1"/>
        <pt x="294" y="-100" on="1"/>
        <pt x="294" y="-15" on="1"/>
        <pt x="194" y="-1" on="0"/>
        <pt x="78" y="118" on="0"/>
        <pt x="67" y="217" on="1"/>
        <pt x="232" y="217" on="1"/>
      </contour>
      <contour>
        <pt x="240" y="537" on="0"/>
        <pt x="266" y="500" on="0"/>
        <pt x="294" y="492" on="1"/>
        <pt x="294" y="653" on="1"/>
        <pt x="240" y="628" on="0"/>
        <pt x="240" y="567" on="1"/>
      </contour>
      <contour>
        <pt x="474" y="174" on="0"/>
        <pt x="474" y="231" on="1"/>
        <pt x="474" y="259" on="0"/>
        <pt x="451" y="295" on="0"/>
        <pt x="427" y="304" on="1"/>
        <pt x="427" y="149" on="1"/>
      </contour>
    </TTGlyph>
    <TTGlyph name="dotlessi" xMin="126" yMin="0" xMax="644" yMax="613">
      <contour>
        <pt x="463" y="613" on="1"/>
        <pt x="463" y="139" on="1"/>
        <pt x="644" y="139" on="1"/>
        <pt x="644" y="0" on="1"/>
        <pt x="126" y="0" on="1"/>
        <pt x="126" y="139" on="1"/>
        <pt x="307" y="139" on="1"/>
        <pt x="307" y="474" on="1"/>
        <pt x="126" y="474" on="1"/>
        <pt x="126" y="613" on="1"/>
      </contour>
    </TTGlyph>
    <TTGlyph name="e" xMin="75" yMin="-19" xMax="637" yMax="632">
      <contour>
        <pt x="75" y="408" on="0"/>
        <pt x="144" y="553" on="0"/>
        <pt x="272" y="632" on="0"/>
        <pt x="358" y="632" on="1"/>
        <pt x="484" y="632" on="0"/>
        <pt x="623" y="464" on="0"/>
        <pt x="623" y="312" on="1"/>
        <pt x="623" y="279" on="0"/>
        <pt x="620" y="252" on="1"/>
        <pt x="227" y="252" on="1"/>
        <pt x="247" y="119" on="0"/>
        <pt x="363" y="119" on="1"/>
        <pt x="443" y="119" on="0"/>
        <pt x="482" y="191" on="1"/>
        <pt x="637" y="191" on="1"/>
        <pt x="607" y="90" on="0"/>
        <pt x="463" y="-19" on="0"/>
        <pt x="359" y="-19" on="1"/>
        <pt x="225" y="-19" on="0"/>
        <pt x="75" y="154" on="0"/>
        <pt x="75" y="310" on="1"/>
      </contour>
      <contour>
        <pt x="479" y="374" on="1"/>
        <pt x="459" y="495" on="0"/>
        <pt x="358" y="495" on="1"/>
        <pt x="307" y="495" on="0"/>
        <pt x="240" y="432" on="0"/>
        <pt x="229" y="374" on="1"/>
      </contour>
    </TTGlyph>
    <TTGlyph name="eight" xMin="48" yMin="-19" xMax="652" yMax="819">
      <contour>
        <pt x="413" y="472" on="0"/>
        <pt x="483" y="522" on="0"/>
        <pt x="483" y="567" on="1"/>
        <pt x="483" y="613" on="0"/>
        <pt x="413" y="663" on="0"/>
        <pt x="350" y="663" on="1"/>
        <pt x="287" y="663" on="0"/>
        <pt x="217" y="613" on="0"/>
        <pt x="217" y="567" on="1"/>
        <pt x="217" y="522" on="0"/>
        <pt x="287" y="472" on="0"/>
        <pt x="350" y="472" on="1"/>
      </contour>
      <contour>
        <pt x="48" y="280" on="0"/>
        <pt x="128" y="373" on="0"/>
        <pt x="196" y="381" on="1"/>
        <pt x="196" y="418" on="1"/>
        <pt x="127" y="425" on="0"/>
        <pt x="48" y="519" on="0"/>
        <pt x="48" y="593" on="1"/>
        <pt x="48" y="662" on="0"/>
        <pt x="121" y="764" on="0"/>
        <pt x="257" y="819" on="0"/>
        <pt x="350" y="819" on="1"/>
        <pt x="443" y="819" on="0"/>
        <pt x="579" y="764" on="0"/>
        <pt x="652" y="662" on="0"/>
        <pt x="652" y="593" on="1"/>
        <pt x="652" y="519" on="0"/>
        <pt x="573" y="425" on="0"/>
        <pt x="504" y="418" on="1"/>
        <pt x="504" y="381" on="1"/>
        <pt x="572" y="373" on="0"/>
        <pt x="652" y="280" on="0"/>
        <pt x="652" y="207" on="1"/>
        <pt x="652" y="138" on="0"/>
        <pt x="579" y="36" on="0"/>
        <pt x="443" y="-19" on="0"/>
        <pt x="350" y="-19" on="1"/>
        <pt x="257" y="-19" on="0"/>
        <pt x="121" y="36" on="0"/>
        <pt x="48" y="138" on="0"/>
        <pt x="48" y="207" on="1"/>
      </contour>
      <contour>
        <pt x="217" y="187" on="0"/>
        <pt x="287" y="137" on="0"/>
        <pt x="350" y="137" on="1"/>
        <pt x="413" y="137" on="0"/>
        <pt x="483" y="187" on="0"/>
        <pt x="483" y="232" on="1"/>
        <pt x="483" y="278" on="0"/>
        <pt x="413" y="327" on="0"/>
        <pt x="350" y="327" on="1"/>
        <pt x="287" y="327" on="0"/>
        <pt x="217" y="278" on="0"/>
        <pt x="217" y="232" on="1"/>
      </contour>
    </TTGlyph>
    <TTGlyph name="ellipsis" xMin="37" yMin="-11" xMax="663" yMax="235">
      <contour>
        <pt x="310" y="-11" on="0"/>
        <pt x="267" y="53" on="0"/>
        <pt x="267" y="112" on="1"/>
        <pt x="267" y="172" on="0"/>
        <pt x="310" y="235" on="0"/>
        <pt x="350" y="235" on="1"/>
        <pt x="390" y="235" on="0"/>
        <pt x="433" y="172" on="0"/>
        <pt x="433" y="112" on="1"/>
        <pt x="433" y="53" on="0"/>
        <pt x="390" y="-11" on="0"/>
        <pt x="350" y="-11" on="1"/>
      </contour>
      <contour>
        <pt x="37" y="172" on="0"/>
        <pt x="80" y="235" on="0"/>
        <pt x="120" y="235" on="1"/>
        <pt x="161" y="235" on="0"/>
        <pt x="204" y="172" on="0"/>
        <pt x="204" y="112" on="1"/>
        <pt x="204" y="53" on="0"/>
        <pt x="160" y="-11" on="0"/>
        <pt x="120" y="-11" on="1"/>
        <pt x="80" y="-11" on="0"/>
        <pt x="37" y="53" on="0"/>
        <pt x="37" y="112" on="1"/>
      </contour>
      <contour>
        <pt x="496" y="172" on="0"/>
        <pt x="539" y="235" on="0"/>
        <pt x="580" y="235" on="1"/>
        <pt x="620" y="235" on="0"/>
        <pt x="663" y="172" on="0"/>
        <pt x="663" y="112" on="1"/>
        <pt x="663" y="53" on="0"/>
        <pt x="620" y="-11" on="0"/>
        <pt x="580" y="-11" on="1"/>
        <pt x="540" y="-11" on="0"/>
        <pt x="496" y="53" on="0"/>
        <pt x="496" y="112" on="1"/>
      </contour>
    </TTGlyph>
    <TTGlyph name="emdash" xMin="25" yMin="284" xMax="675" yMax="416">
      <contour>
        <pt x="675" y="416" on="1"/>
        <pt x="675" y="284" on="1"/>
        <pt x="25" y="284" on="1"/>
        <pt x="25" y="416" on="1"/>
      </contour>
    </TTGlyph>
    <TTGlyph name="emdash.case" xMin="25" yMin="334" xMax="675" yMax="466">
      <component glyphName="emdash" x="0" y="50" flags="0x4"/>
    </TTGlyph>
    <TTGlyph name="endash" xMin="46" yMin="284" xMax="654" yMax="416">
      <contour>
        <pt x="654" y="416" on="1"/>
        <pt x="654" y="284" on="1"/>
        <pt x="46" y="284" on="1"/>
        <pt x="46" y="416" on="1"/>
      </contour>
    </TTGlyph>
    <TTGlyph name="endash.case" xMin="46" yMin="334" xMax="654" yMax="466">
      <component glyphName="endash" x="0" y="50" flags="0x4"/>
    </TTGlyph>
    <TTGlyph name="equal" xMin="90" yMin="144" xMax="610" yMax="556">
      <contour>
        <pt x="90" y="556" on="1"/>
        <pt x="610" y="556" on="1"/>
        <pt x="610" y="417" on="1"/>
        <pt x="90" y="417" on="1"/>
      </contour>
      <contour>
        <pt x="90" y="283" on="1"/>
        <pt x="610" y="283" on="1"/>
        <pt x="610" y="144" on="1"/>
        <pt x="90" y="144" on="1"/>
      </contour>
    </TTGlyph>
    <TTGlyph name="equal.case" xMin="90" yMin="194" xMax="610" yMax="606">
      <component glyphName="equal" x="0" y="50" flags="0x4"/>
    </TTGlyph>
    <TTGlyph name="exclam" xMin="237" yMin="-9" xMax="462" yMax="800">
      <contour>
        <pt x="431" y="800" on="1"/>
        <pt x="431" y="254" on="1"/>
        <pt x="269" y="254" on="1"/>
        <pt x="269" y="800" on="1"/>
      </contour>
      <contour>
        <pt x="237" y="142" on="0"/>
        <pt x="295" y="194" on="0"/>
        <pt x="350" y="194" on="1"/>
        <pt x="405" y="194" on="0"/>
        <pt x="462" y="142" on="0"/>
        <pt x="462" y="92" on="1"/>
        <pt x="462" y="43" on="0"/>
        <pt x="405" y="-9" on="0"/>
        <pt x="350" y="-9" on="1"/>
        <pt x="295" y="-9" on="0"/>
        <pt x="237" y="43" on="0"/>
        <pt x="237" y="92" on="1"/>
      </contour>
    </TTGlyph>
    <TTGlyph name="f" xMin="109" yMin="0" xMax="698" yMax="867">
      <contour>
        <pt x="242" y="0" on="1"/>
        <pt x="242" y="474" on="1"/>
        <pt x="109" y="474" on="1"/>
        <pt x="109" y="613" on="1"/>
        <pt x="242" y="613" on="1"/>
        <pt x="242" y="655" on="1"/>
        <pt x="242" y="757" on="0"/>
        <pt x="360" y="867" on="0"/>
        <pt x="470" y="867" on="1"/>
        <pt x="573" y="867" on="0"/>
        <pt x="691" y="768" on="0"/>
        <pt x="698" y="677" on="1"/>
        <pt x="544" y="677" on="1"/>
        <pt x="538" y="732" on="0"/>
        <pt x="470" y="732" on="1"/>
        <pt x="433" y="732" on="0"/>
        <pt x="398" y="694" on="0"/>
        <pt x="398" y="655" on="1"/>
        <pt x="398" y="613" on="1"/>
        <pt x="625" y="613" on="1"/>
        <pt x="625" y="474" on="1"/>
        <pt x="398" y="474" on="1"/>
        <pt x="398" y="0" on="1"/>
      </contour>
    </TTGlyph>
    <TTGlyph name="five" xMin="62" yMin="-19" xMax="646" yMax="800">
      <contour>
        <pt x="628" y="800" on="1"/>
        <pt x="628" y="644" on="1"/>
        <pt x="255" y="644" on="1"/>
        <pt x="255" y="477" on="1"/>
        <pt x="291" y="477" on="1"/>
        <pt x="300" y="514" on="0"/>
        <pt x="368" y="554" on="0"/>
        <pt x="420" y="554" on="1"/>
        <pt x="527" y="554" on="0"/>
        <pt x="646" y="407" on="0"/>
        <pt x="646" y="276" on="1"/>
        <pt x="646" y="137" on="0"/>
        <pt x="494" y="-19" on="0"/>
        <pt x="359" y="-19" on="1"/>
        <pt x="229" y="-19" on="0"/>
        <pt x="72" y="125" on="0"/>
        <pt x="62" y="253" on="1"/>
        <pt x="237" y="253" on="1"/>
        <pt x="244" y="198" on="0"/>
        <pt x="307" y="136" on="0"/>
        <pt x="357" y="136" on="1"/>
        <pt x="414" y="136" on="0"/>
        <pt x="477" y="210" on="0"/>
        <pt x="477" y="276" on="1"/>
        <pt x="477" y="338" on="0"/>
        <pt x="415" y="408" on="0"/>
        <pt x="360" y="408" on="1"/>
        <pt x="320" y="408" on="0"/>
        <pt x="259" y="368" on="0"/>
        <pt x="245" y="333" on="1"/>
        <pt x="92" y="333" on="1"/>
        <pt x="91" y="800" on="1"/>
      </contour>
    </TTGlyph>
    <TTGlyph name="four" xMin="46" yMin="0" xMax="670" yMax="800">
      <contour>
        <pt x="550" y="360" on="1"/>
        <pt x="670" y="360" on="1"/>
        <pt x="670" y="204" on="1"/>
        <pt x="550" y="204" on="1"/>
        <pt x="550" y="0" on="1"/>
        <pt x="387" y="0" on="1"/>
        <pt x="387" y="204" on="1"/>
        <pt x="46" y="204" on="1"/>
        <pt x="46" y="425" on="1"/>
        <pt x="263" y="800" on="1"/>
        <pt x="550" y="800" on="1"/>
      </contour>
      <contour>
        <pt x="387" y="360" on="1"/>
        <pt x="387" y="707" on="1"/>
        <pt x="181" y="360" on="1"/>
      </contour>
    </TTGlyph>
    <TTGlyph name="g" xMin="55" yMin="-219" xMax="613" yMax="629">
      <contour>
        <pt x="613" y="-39" on="0"/>
        <pt x="544" y="-156" on="0"/>
        <pt x="418" y="-219" on="0"/>
        <pt x="333" y="-219" on="1"/>
        <pt x="217" y="-219" on="0"/>
        <pt x="67" y="-113" on="0"/>
        <pt x="55" y="-23" on="1"/>
        <pt x="225" y="-23" on="1"/>
        <pt x="232" y="-51" on="0"/>
        <pt x="289" y="-83" on="0"/>
        <pt x="333" y="-83" on="1"/>
        <pt x="392" y="-83" on="0"/>
        <pt x="457" y="-19" on="0"/>
        <pt x="457" y="39" on="1"/>
        <pt x="457" y="142" on="1"/>
        <pt x="421" y="142" on="1"/>
        <pt x="410" y="96" on="0"/>
        <pt x="335" y="43" on="0"/>
        <pt x="282" y="43" on="1"/>
        <pt x="213" y="43" on="0"/>
        <pt x="110" y="113" on="0"/>
        <pt x="55" y="243" on="0"/>
        <pt x="55" y="331" on="1"/>
        <pt x="55" y="422" on="0"/>
        <pt x="110" y="556" on="0"/>
        <pt x="213" y="629" on="0"/>
        <pt x="282" y="629" on="1"/>
        <pt x="335" y="629" on="0"/>
        <pt x="410" y="573" on="0"/>
        <pt x="421" y="525" on="1"/>
        <pt x="457" y="525" on="1"/>
        <pt x="457" y="613" on="1"/>
        <pt x="613" y="613" on="1"/>
        <pt x="613" y="39" on="1"/>
      </contour>
      <contour>
        <pt x="208" y="257" on="0"/>
        <pt x="276" y="173" on="0"/>
        <pt x="337" y="173" on="1"/>
        <pt x="398" y="173" on="0"/>
        <pt x="466" y="257" on="0"/>
        <pt x="466" y="333" on="1"/>
        <pt x="466" y="409" on="0"/>
        <pt x="398" y="493" on="0"/>
        <pt x="337" y="493" on="1"/>
        <pt x="276" y="493" on="0"/>
        <pt x="208" y="409" on="0"/>
        <pt x="208" y="333" on="1"/>
      </contour>
    </TTGlyph>
    <TTGlyph name="grave" xMin="160" yMin="527" xMax="539" yMax="848">
      <contour>
        <pt x="351" y="848" on="1"/>
        <pt x="539" y="527" on="1"/>
        <pt x="399" y="527" on="1"/>
        <pt x="160" y="848" on="1"/>
      </contour>
    </TTGlyph>
    <TTGlyph name="greater" xMin="91" yMin="20" xMax="609" yMax="680">
      <contour>
        <pt x="91" y="20" on="1"/>
        <pt x="91" y="169" on="1"/>
        <pt x="516" y="342" on="1"/>
        <pt x="516" y="358" on="1"/>
        <pt x="91" y="531" on="1"/>
        <pt x="91" y="680" on="1"/>
        <pt x="609" y="465" on="1"/>
        <pt x="609" y="235" on="1"/>
      </contour>
    </TTGlyph>
    <TTGlyph name="greater.case" xMin="91" yMin="70" xMax="609" yMax="730">
      <component glyphName="greater" x="0" y="50" flags="0x4"/>
    </TTGlyph>
    <TTGlyph name="guillemotleft" xMin="73" yMin="42" xMax="606" yMax="659">
      <contour>
        <pt x="73" y="244" on="1"/>
        <pt x="73" y="461" on="1"/>
        <pt x="338" y="659" on="1"/>
        <pt x="338" y="482" on="1"/>
        <pt x="156" y="353" on="1"/>
        <pt x="338" y="224" on="1"/>
        <pt x="338" y="42" on="1"/>
      </contour>
      <contour>
        <pt x="368" y="450" on="1"/>
        <pt x="606" y="628" on="1"/>
        <pt x="606" y="462" on="1"/>
        <pt x="449" y="352" on="1"/>
        <pt x="606" y="244" on="1"/>
        <pt x="606" y="73" on="1"/>
        <pt x="368" y="255" on="1"/>
      </contour>
    </TTGlyph>
    <TTGlyph name="guillemotright" xMin="94" yMin="42" xMax="627" yMax="659">
      <contour>
        <pt x="362" y="224" on="1"/>
        <pt x="544" y="353" on="1"/>
        <pt x="362" y="482" on="1"/>
        <pt x="362" y="659" on="1"/>
        <pt x="627" y="461" on="1"/>
        <pt x="627" y="244" on="1"/>
        <pt x="362" y="42" on="1"/>
      </contour>
      <contour>
        <pt x="94" y="244" on="1"/>
        <pt x="251" y="352" on="1"/>
        <pt x="94" y="462" on="1"/>
        <pt x="94" y="628" on="1"/>
        <pt x="332" y="450" on="1"/>
        <pt x="332" y="255" on="1"/>
        <pt x="94" y="73" on="1"/>
      </contour>
    </TTGlyph>
    <TTGlyph name="h" xMin="91" yMin="0" xMax="617" yMax="848">
      <contour>
        <pt x="247" y="848" on="1"/>
        <pt x="247" y="519" on="1"/>
        <pt x="284" y="519" on="1"/>
        <pt x="294" y="573" on="0"/>
        <pt x="372" y="632" on="0"/>
        <pt x="431" y="632" on="1"/>
        <pt x="519" y="632" on="0"/>
        <pt x="617" y="504" on="0"/>
        <pt x="617" y="390" on="1"/>
        <pt x="617" y="0" on="1"/>
        <pt x="461" y="0" on="1"/>
        <pt x="461" y="351" on="1"/>
        <pt x="461" y="486" on="0"/>
        <pt x="354" y="486" on="1"/>
        <pt x="247" y="486" on="0"/>
        <pt x="247" y="351" on="1"/>
        <pt x="247" y="0" on="1"/>
        <pt x="91" y="0" on="1"/>
        <pt x="91" y="848" on="1"/>
      </contour>
    </TTGlyph>
    <TTGlyph name="hyphen" xMin="65" yMin="280" xMax="635" yMax="420">
      <component glyphName="minus" x="0" y="0" flags="0x0"/>
    </TTGlyph>
    <TTGlyph name="hyphen.case" xMin="65" yMin="330" xMax="635" yMax="470">
      <component glyphName="minus.case" x="0" y="0" flags="0x0"/>
    </TTGlyph>
    <TTGlyph name="i" xMin="126" yMin="0" xMax="644" yMax="872">
      <component glyphName="dotlessi" x="0" y="0" flags="0x0"/>
      <component glyphName="uni0307" x="301" y="0" flags="0x0"/>
    </TTGlyph>
    <TTGlyph name="j" xMin="68" yMin="-219" xMax="551" yMax="872">
      <component glyphName="uni0237" x="0" y="0" flags="0x0"/>
      <component glyphName="uni0307" x="363" y="0" flags="0x0"/>
    </TTGlyph>
    <TTGlyph name="k" xMin="111" yMin="0" xMax="679" yMax="848">
      <contour>
        <pt x="267" y="848" on="1"/>
        <pt x="267" y="342" on="1"/>
        <pt x="492" y="613" on="1"/>
        <pt x="679" y="613" on="1"/>
        <pt x="412" y="303" on="1"/>
        <pt x="669" y="0" on="1"/>
        <pt x="473" y="0" on="1"/>
        <pt x="267" y="252" on="1"/>
        <pt x="267" y="0" on="1"/>
        <pt x="111" y="0" on="1"/>
        <pt x="111" y="848" on="1"/>
      </contour>
    </TTGlyph>
    <TTGlyph name="l" xMin="109" yMin="0" xMax="626" yMax="848">
      <contour>
        <pt x="446" y="848" on="1"/>
        <pt x="446" y="139" on="1"/>
        <pt x="626" y="139" on="1"/>
        <pt x="626" y="0" on="1"/>
        <pt x="109" y="0" on="1"/>
        <pt x="109" y="139" on="1"/>
        <pt x="290" y="139" on="1"/>
        <pt x="290" y="709" on="1"/>
        <pt x="109" y="709" on="1"/>
        <pt x="109" y="848" on="1"/>
      </contour>
    </TTGlyph>
    <TTGlyph name="less" xMin="91" yMin="20" xMax="609" yMax="680">
      <contour>
        <pt x="609" y="680" on="1"/>
        <pt x="609" y="531" on="1"/>
        <pt x="184" y="358" on="1"/>
        <pt x="184" y="342" on="1"/>
        <pt x="609" y="169" on="1"/>
        <pt x="609" y="20" on="1"/>
        <pt x="91" y="235" on="1"/>
        <pt x="91" y="465" on="1"/>
      </contour>
    </TTGlyph>
    <TTGlyph name="less.case" xMin="91" yMin="70" xMax="609" yMax="730">
      <contour>
        <pt x="609" y="730" on="1"/>
        <pt x="609" y="581" on="1"/>
        <pt x="184" y="408" on="1"/>
        <pt x="184" y="392" on="1"/>
        <pt x="609" y="219" on="1"/>
        <pt x="609" y="70" on="1"/>
        <pt x="91" y="285" on="1"/>
        <pt x="91" y="515" on="1"/>
      </contour>
    </TTGlyph>
    <TTGlyph name="m" xMin="50" yMin="0" xMax="653" yMax="632">
      <contour>
        <pt x="200" y="613" on="1"/>
        <pt x="200" y="527" on="1"/>
        <pt x="237" y="527" on="1"/>
        <pt x="248" y="632" on="0"/>
        <pt x="327" y="632" on="1"/>
        <pt x="407" y="632" on="0"/>
        <pt x="423" y="527" on="1"/>
        <pt x="457" y="527" on="1"/>
        <pt x="462" y="579" on="0"/>
        <pt x="510" y="632" on="0"/>
        <pt x="551" y="632" on="1"/>
        <pt x="601" y="632" on="0"/>
        <pt x="653" y="549" on="0"/>
        <pt x="653" y="469" on="1"/>
        <pt x="653" y="0" on="1"/>
        <pt x="503" y="0" on="1"/>
        <pt x="503" y="416" on="1"/>
        <pt x="503" y="469" on="0"/>
        <pt x="465" y="469" on="1"/>
        <pt x="445" y="469" on="0"/>
        <pt x="426" y="443" on="0"/>
        <pt x="426" y="416" on="1"/>
        <pt x="426" y="0" on="1"/>
        <pt x="277" y="0" on="1"/>
        <pt x="277" y="416" on="1"/>
        <pt x="277" y="443" on="0"/>
        <pt x="258" y="469" on="0"/>
        <pt x="238" y="469" on="1"/>
        <pt x="200" y="469" on="0"/>
        <pt x="200" y="416" on="1"/>
        <pt x="200" y="0" on="1"/>
        <pt x="50" y="0" on="1"/>
        <pt x="50" y="613" on="1"/>
      </contour>
    </TTGlyph>
    <TTGlyph name="minus" xMin="65" yMin="280" xMax="635" yMax="420">
      <contour>
        <pt x="65" y="420" on="1"/>
        <pt x="635" y="420" on="1"/>
        <pt x="635" y="280" on="1"/>
        <pt x="65" y="280" on="1"/>
      </contour>
    </TTGlyph>
    <TTGlyph name="minus.case" xMin="65" yMin="330" xMax="635" yMax="470">
      <component glyphName="minus" x="0" y="50" flags="0x4"/>
    </TTGlyph>
    <TTGlyph name="multiply" xMin="83" yMin="83" xMax="617" yMax="617">
      <contour>
        <pt x="350" y="260" on="1"/>
        <pt x="173" y="83" on="1"/>
        <pt x="83" y="172" on="1"/>
        <pt x="260" y="350" on="1"/>
        <pt x="83" y="527" on="1"/>
        <pt x="172" y="617" on="1"/>
        <pt x="350" y="440" on="1"/>
        <pt x="527" y="617" on="1"/>
        <pt x="617" y="527" on="1"/>
        <pt x="440" y="350" on="1"/>
        <pt x="617" y="173" on="1"/>
        <pt x="527" y="83" on="1"/>
      </contour>
    </TTGlyph>
    <TTGlyph name="multiply.case" xMin="83" yMin="133" xMax="617" yMax="667">
      <component glyphName="multiply" x="0" y="50" flags="0x4"/>
    </TTGlyph>
    <TTGlyph name="n" xMin="91" yMin="0" xMax="618" yMax="632">
      <contour>
        <pt x="247" y="613" on="1"/>
        <pt x="247" y="519" on="1"/>
        <pt x="284" y="519" on="1"/>
        <pt x="295" y="573" on="0"/>
        <pt x="372" y="632" on="0"/>
        <pt x="432" y="632" on="1"/>
        <pt x="519" y="632" on="0"/>
        <pt x="618" y="504" on="0"/>
        <pt x="618" y="390" on="1"/>
        <pt x="618" y="0" on="1"/>
        <pt x="462" y="0" on="1"/>
        <pt x="462" y="351" on="1"/>
        <pt x="462" y="418" on="0"/>
        <pt x="408" y="486" on="0"/>
        <pt x="355" y="486" on="1"/>
        <pt x="247" y="486" on="0"/>
        <pt x="247" y="351" on="1"/>
        <pt x="247" y="0" on="1"/>
        <pt x="91" y="0" on="1"/>
        <pt x="91" y="613" on="1"/>
      </contour>
    </TTGlyph>
    <TTGlyph name="nine" xMin="54" yMin="0" xMax="646" yMax="819">
      <contour>
        <pt x="440" y="819" on="0"/>
        <pt x="573" y="748" on="0"/>
        <pt x="646" y="618" on="0"/>
        <pt x="646" y="531" on="1"/>
        <pt x="646" y="407" on="0"/>
        <pt x="564" y="285" on="1"/>
        <pt x="373" y="0" on="1"/>
        <pt x="179" y="0" on="1"/>
        <pt x="379" y="287" on="1"/>
        <pt x="352" y="307" on="1"/>
        <pt x="340" y="295" on="0"/>
        <pt x="296" y="281" on="0"/>
        <pt x="270" y="281" on="1"/>
        <pt x="208" y="281" on="0"/>
        <pt x="110" y="346" on="0"/>
        <pt x="54" y="460" on="0"/>
        <pt x="54" y="531" on="1"/>
        <pt x="54" y="618" on="0"/>
        <pt x="127" y="748" on="0"/>
        <pt x="262" y="819" on="0"/>
        <pt x="352" y="819" on="1"/>
      </contour>
      <contour>
        <pt x="222" y="470" on="0"/>
        <pt x="291" y="396" on="0"/>
        <pt x="349" y="396" on="1"/>
        <pt x="407" y="396" on="0"/>
        <pt x="478" y="470" on="0"/>
        <pt x="478" y="531" on="1"/>
        <pt x="478" y="592" on="0"/>
        <pt x="409" y="665" on="0"/>
        <pt x="351" y="665" on="1"/>
        <pt x="293" y="665" on="0"/>
        <pt x="222" y="592" on="0"/>
        <pt x="222" y="531" on="1"/>
      </contour>
    </TTGlyph>
    <TTGlyph name="notequal" xMin="90" yMin="10" xMax="610" yMax="690">
      <contour>
        <pt x="90" y="556" on="1"/>
        <pt x="376" y="556" on="1"/>
        <pt x="436" y="690" on="1"/>
        <pt x="571" y="690" on="1"/>
        <pt x="511" y="556" on="1"/>
        <pt x="610" y="556" on="1"/>
        <pt x="610" y="417" on="1"/>
        <pt x="449" y="417" on="1"/>
        <pt x="388" y="283" on="1"/>
        <pt x="610" y="283" on="1"/>
        <pt x="610" y="144" on="1"/>
        <pt x="326" y="144" on="1"/>
        <pt x="266" y="10" on="1"/>
        <pt x="131" y="10" on="1"/>
        <pt x="191" y="144" on="1"/>
        <pt x="90" y="144" on="1"/>
        <pt x="90" y="283" on="1"/>
        <pt x="253" y="283" on="1"/>
        <pt x="314" y="417" on="1"/>
        <pt x="90" y="417" on="1"/>
      </contour>
    </TTGlyph>
    <TTGlyph name="notequal.case" xMin="90" yMin="60" xMax="610" yMax="740">
      <component glyphName="notequal" x="0" y="50" flags="0x4"/>
    </TTGlyph>
    <TTGlyph name="numbersign" xMin="37" yMin="0" xMax="663" yMax="800">
      <contour>
        <pt x="345" y="621" on="1"/>
        <pt x="442" y="621" on="1"/>
        <pt x="477" y="800" on="1"/>
        <pt x="609" y="800" on="1"/>
        <pt x="574" y="621" on="1"/>
        <pt x="663" y="621" on="1"/>
        <pt x="663" y="483" on="1"/>
        <pt x="547" y="483" on="1"/>
        <pt x="514" y="317" on="1"/>
        <pt x="609" y="317" on="1"/>
        <pt x="609" y="179" on="1"/>
        <pt x="487" y="179" on="1"/>
        <pt x="452" y="0" on="1"/>
        <pt x="320" y="0" on="1"/>
        <pt x="355" y="179" on="1"/>
        <pt x="258" y="179" on="1"/>
        <pt x="223" y="0" on="1"/>
        <pt x="91" y="0" on="1"/>
        <pt x="126" y="179" on="1"/>
        <pt x="37" y="179" on="1"/>
        <pt x="37" y="317" on="1"/>
        <pt x="153" y="317" on="1"/>
        <pt x="186" y="483" on="1"/>
        <pt x="91" y="483" on="1"/>
        <pt x="91" y="621" on="1"/>
        <pt x="213" y="621" on="1"/>
        <pt x="248" y="800" on="1"/>
        <pt x="380" y="800" on="1"/>
      </contour>
      <contour>
        <pt x="382" y="317" on="1"/>
        <pt x="415" y="483" on="1"/>
        <pt x="318" y="483" on="1"/>
        <pt x="285" y="317" on="1"/>
      </contour>
    </TTGlyph>
    <TTGlyph name="o" xMin="58" yMin="-19" xMax="642" yMax="632">
      <contour>
        <pt x="262" y="-19" on="0"/>
        <pt x="130" y="61" on="0"/>
        <pt x="58" y="208" on="0"/>
        <pt x="58" y="307" on="1"/>
        <pt x="58" y="406" on="0"/>
        <pt x="130" y="553" on="0"/>
        <pt x="262" y="632" on="0"/>
        <pt x="350" y="632" on="1"/>
        <pt x="438" y="632" on="0"/>
        <pt x="570" y="553" on="0"/>
        <pt x="642" y="406" on="0"/>
        <pt x="642" y="307" on="1"/>
        <pt x="642" y="208" on="0"/>
        <pt x="570" y="61" on="0"/>
        <pt x="438" y="-19" on="0"/>
        <pt x="350" y="-19" on="1"/>
      </contour>
      <contour>
        <pt x="209" y="219" on="0"/>
        <pt x="283" y="121" on="0"/>
        <pt x="350" y="121" on="1"/>
        <pt x="417" y="121" on="0"/>
        <pt x="491" y="219" on="0"/>
        <pt x="491" y="307" on="1"/>
        <pt x="491" y="395" on="0"/>
        <pt x="417" y="493" on="0"/>
        <pt x="350" y="493" on="1"/>
        <pt x="283" y="493" on="0"/>
        <pt x="209" y="395" on="0"/>
        <pt x="209" y="307" on="1"/>
      </contour>
    </TTGlyph>
    <TTGlyph name="one" xMin="81" yMin="0" xMax="672" yMax="800">
      <contour>
        <pt x="469" y="146" on="1"/>
        <pt x="672" y="146" on="1"/>
        <pt x="672" y="0" on="1"/>
        <pt x="81" y="0" on="1"/>
        <pt x="81" y="146" on="1"/>
        <pt x="306" y="146" on="1"/>
        <pt x="306" y="659" on="1"/>
        <pt x="81" y="505" on="1"/>
        <pt x="81" y="693" on="1"/>
        <pt x="253" y="800" on="1"/>
        <pt x="469" y="800" on="1"/>
      </contour>
    </TTGlyph>
    <TTGlyph name="p" xMin="82" yMin="-200" xMax="659" yMax="629">
      <contour>
        <pt x="495" y="629" on="0"/>
        <pt x="601" y="551" on="0"/>
        <pt x="659" y="405" on="0"/>
        <pt x="659" y="307" on="1"/>
        <pt x="659" y="209" on="0"/>
        <pt x="601" y="63" on="0"/>
        <pt x="495" y="-16" on="0"/>
        <pt x="424" y="-16" on="1"/>
        <pt x="365" y="-16" on="0"/>
        <pt x="285" y="42" on="0"/>
        <pt x="275" y="93" on="1"/>
        <pt x="238" y="93" on="1"/>
        <pt x="238" y="-200" on="1"/>
        <pt x="82" y="-200" on="1"/>
        <pt x="82" y="613" on="1"/>
        <pt x="238" y="613" on="1"/>
        <pt x="238" y="520" on="1"/>
        <pt x="275" y="520" on="1"/>
        <pt x="285" y="571" on="0"/>
        <pt x="365" y="629" on="0"/>
        <pt x="424" y="629" on="1"/>
      </contour>
      <contour>
        <pt x="228" y="218" on="0"/>
        <pt x="301" y="120" on="0"/>
        <pt x="367" y="120" on="1"/>
        <pt x="433" y="120" on="0"/>
        <pt x="506" y="218" on="0"/>
        <pt x="506" y="307" on="1"/>
        <pt x="506" y="395" on="0"/>
        <pt x="432" y="493" on="0"/>
        <pt x="367" y="493" on="1"/>
        <pt x="301" y="493" on="0"/>
        <pt x="228" y="395" on="0"/>
        <pt x="228" y="307" on="1"/>
      </contour>
    </TTGlyph>
    <TTGlyph name="parenleft" xMin="219" yMin="-199" xMax="587" yMax="959">
      <contour>
        <pt x="484" y="768" on="0"/>
        <pt x="375" y="541" on="0"/>
        <pt x="375" y="380" on="1"/>
        <pt x="375" y="219" on="0"/>
        <pt x="484" y="-8" on="0"/>
        <pt x="587" y="-60" on="1"/>
        <pt x="587" y="-199" on="1"/>
        <pt x="473" y="-154" on="0"/>
        <pt x="307" y="15" on="0"/>
        <pt x="219" y="245" on="0"/>
        <pt x="219" y="380" on="1"/>
        <pt x="219" y="515" on="0"/>
        <pt x="307" y="745" on="0"/>
        <pt x="473" y="914" on="0"/>
        <pt x="587" y="959" on="1"/>
        <pt x="587" y="820" on="1"/>
      </contour>
    </TTGlyph>
    <TTGlyph name="parenright" xMin="113" yMin="-199" xMax="481" yMax="959">
      <contour>
        <pt x="227" y="914" on="0"/>
        <pt x="393" y="745" on="0"/>
        <pt x="481" y="515" on="0"/>
        <pt x="481" y="380" on="1"/>
        <pt x="481" y="245" on="0"/>
        <pt x="393" y="15" on="0"/>
        <pt x="227" y="-154" on="0"/>
        <pt x="113" y="-199" on="1"/>
        <pt x="113" y="-60" on="1"/>
        <pt x="216" y="-8" on="0"/>
        <pt x="325" y="219" on="0"/>
        <pt x="325" y="380" on="1"/>
        <pt x="325" y="541" on="0"/>
        <pt x="216" y="768" on="0"/>
        <pt x="113" y="820" on="1"/>
        <pt x="113" y="959" on="1"/>
      </contour>
    </TTGlyph>
    <TTGlyph name="percent" xMin="33" yMin="-19" xMax="667" yMax="819">
      <contour>
        <pt x="33" y="253" on="1"/>
        <pt x="667" y="664" on="1"/>
        <pt x="667" y="547" on="1"/>
        <pt x="33" y="136" on="1"/>
      </contour>
      <contour>
        <pt x="38" y="724" on="0"/>
        <pt x="127" y="819" on="0"/>
        <pt x="207" y="819" on="1"/>
        <pt x="287" y="819" on="0"/>
        <pt x="377" y="724" on="0"/>
        <pt x="377" y="639" on="1"/>
        <pt x="377" y="555" on="0"/>
        <pt x="287" y="460" on="0"/>
        <pt x="207" y="460" on="1"/>
        <pt x="128" y="460" on="0"/>
        <pt x="38" y="555" on="0"/>
        <pt x="38" y="639" on="1"/>
      </contour>
      <contour>
        <pt x="169" y="586" on="0"/>
        <pt x="207" y="586" on="1"/>
        <pt x="245" y="586" on="0"/>
        <pt x="245" y="639" on="1"/>
        <pt x="245" y="693" on="0"/>
        <pt x="207" y="693" on="1"/>
        <pt x="169" y="693" on="0"/>
        <pt x="169" y="639" on="1"/>
      </contour>
      <contour>
        <pt x="323" y="245" on="0"/>
        <pt x="413" y="340" on="0"/>
        <pt x="493" y="340" on="1"/>
        <pt x="572" y="340" on="0"/>
        <pt x="662" y="245" on="0"/>
        <pt x="662" y="161" on="1"/>
        <pt x="662" y="76" on="0"/>
        <pt x="573" y="-19" on="0"/>
        <pt x="493" y="-19" on="1"/>
        <pt x="413" y="-19" on="0"/>
        <pt x="323" y="76" on="0"/>
        <pt x="323" y="161" on="1"/>
      </contour>
      <contour>
        <pt x="455" y="107" on="0"/>
        <pt x="493" y="107" on="1"/>
        <pt x="531" y="107" on="0"/>
        <pt x="531" y="161" on="1"/>
        <pt x="531" y="214" on="0"/>
        <pt x="493" y="214" on="1"/>
        <pt x="455" y="214" on="0"/>
        <pt x="455" y="161" on="1"/>
      </contour>
    </TTGlyph>
    <TTGlyph name="percent.cv01" xMin="38" yMin="-19" xMax="662" yMax="819">
      <contour>
        <pt x="411" y="-19" on="0"/>
        <pt x="323" y="90" on="0"/>
        <pt x="323" y="191" on="1"/>
        <pt x="323" y="292" on="0"/>
        <pt x="411" y="400" on="0"/>
        <pt x="493" y="400" on="1"/>
        <pt x="575" y="400" on="0"/>
        <pt x="662" y="292" on="0"/>
        <pt x="662" y="191" on="1"/>
        <pt x="662" y="90" on="0"/>
        <pt x="575" y="-19" on="0"/>
        <pt x="493" y="-19" on="1"/>
      </contour>
      <contour>
        <pt x="38" y="710" on="0"/>
        <pt x="125" y="819" on="0"/>
        <pt x="207" y="819" on="1"/>
        <pt x="289" y="819" on="0"/>
        <pt x="377" y="710" on="0"/>
        <pt x="377" y="609" on="1"/>
        <pt x="377" y="508" on="0"/>
        <pt x="289" y="400" on="0"/>
        <pt x="207" y="400" on="1"/>
        <pt x="125" y="400" on="0"/>
        <pt x="38" y="508" on="0"/>
        <pt x="38" y="609" on="1"/>
      </contour>
      <contour>
        <pt x="189" y="340" on="1"/>
        <pt x="311" y="340" on="1"/>
        <pt x="201" y="0" on="1"/>
        <pt x="68" y="0" on="1"/>
      </contour>
      <contour>
        <pt x="169" y="526" on="0"/>
        <pt x="207" y="526" on="1"/>
        <pt x="245" y="526" on="0"/>
        <pt x="245" y="609" on="1"/>
        <pt x="245" y="693" on="0"/>
        <pt x="207" y="693" on="1"/>
        <pt x="169" y="693" on="0"/>
        <pt x="169" y="609" on="1"/>
      </contour>
      <contour>
        <pt x="499" y="800" on="1"/>
        <pt x="632" y="800" on="1"/>
        <pt x="511" y="460" on="1"/>
        <pt x="389" y="460" on="1"/>
      </contour>
      <contour>
        <pt x="455" y="107" on="0"/>
        <pt x="493" y="107" on="1"/>
        <pt x="531" y="107" on="0"/>
        <pt x="531" y="191" on="1"/>
        <pt x="531" y="274" on="0"/>
        <pt x="493" y="274" on="1"/>
        <pt x="455" y="274" on="0"/>
        <pt x="455" y="191" on="1"/>
      </contour>
    </TTGlyph>
    <TTGlyph name="percent.cv02" xMin="38" yMin="-20" xMax="662" yMax="820">
      <contour>
        <pt x="413" y="-19" on="0"/>
        <pt x="323" y="76" on="0"/>
        <pt x="323" y="161" on="1"/>
        <pt x="323" y="245" on="0"/>
        <pt x="413" y="340" on="0"/>
        <pt x="493" y="340" on="1"/>
        <pt x="572" y="340" on="0"/>
        <pt x="662" y="245" on="0"/>
        <pt x="662" y="161" on="1"/>
        <pt x="662" y="76" on="0"/>
        <pt x="573" y="-19" on="0"/>
        <pt x="493" y="-19" on="1"/>
      </contour>
      <contour>
        <pt x="38" y="724" on="0"/>
        <pt x="127" y="819" on="0"/>
        <pt x="207" y="819" on="1"/>
        <pt x="287" y="819" on="0"/>
        <pt x="377" y="724" on="0"/>
        <pt x="377" y="639" on="1"/>
        <pt x="377" y="555" on="0"/>
        <pt x="287" y="460" on="0"/>
        <pt x="207" y="460" on="1"/>
        <pt x="128" y="460" on="0"/>
        <pt x="38" y="555" on="0"/>
        <pt x="38" y="639" on="1"/>
      </contour>
      <contour>
        <pt x="74" y="123" on="1"/>
        <pt x="626" y="820" on="1"/>
        <pt x="626" y="677" on="1"/>
        <pt x="74" y="-20" on="1"/>
      </contour>
      <contour>
        <pt x="169" y="586" on="0"/>
        <pt x="207" y="586" on="1"/>
        <pt x="245" y="586" on="0"/>
        <pt x="245" y="639" on="1"/>
        <pt x="245" y="693" on="0"/>
        <pt x="207" y="693" on="1"/>
        <pt x="169" y="693" on="0"/>
        <pt x="169" y="639" on="1"/>
      </contour>
      <contour>
        <pt x="455" y="107" on="0"/>
        <pt x="493" y="107" on="1"/>
        <pt x="531" y="107" on="0"/>
        <pt x="531" y="161" on="1"/>
        <pt x="531" y="214" on="0"/>
        <pt x="493" y="214" on="1"/>
        <pt x="455" y="214" on="0"/>
        <pt x="455" y="161" on="1"/>
      </contour>
    </TTGlyph>
    <TTGlyph name="period" xMin="228" yMin="-11" xMax="472" yMax="235">
      <contour>
        <pt x="291" y="-11" on="0"/>
        <pt x="228" y="53" on="0"/>
        <pt x="228" y="112" on="1"/>
        <pt x="228" y="172" on="0"/>
        <pt x="291" y="235" on="0"/>
        <pt x="350" y="235" on="1"/>
        <pt x="409" y="235" on="0"/>
        <pt x="472" y="172" on="0"/>
        <pt x="472" y="112" on="1"/>
        <pt x="472" y="53" on="0"/>
        <pt x="409" y="-11" on="0"/>
        <pt x="350" y="-11" on="1"/>
      </contour>
    </TTGlyph>
    <TTGlyph name="plus" xMin="65" yMin="65" xMax="635" yMax="635">
      <contour>
        <pt x="65" y="420" on="1"/>
        <pt x="280" y="420" on="1"/>
        <pt x="280" y="635" on="1"/>
        <pt x="420" y="635" on="1"/>
        <pt x="420" y="420" on="1"/>
        <pt x="635" y="420" on="1"/>
        <pt x="635" y="280" on="1"/>
        <pt x="420" y="280" on="1"/>
        <pt x="420" y="65" on="1"/>
        <pt x="280" y="65" on="1"/>
        <pt x="280" y="280" on="1"/>
        <pt x="65" y="280" on="1"/>
      </contour>
    </TTGlyph>
    <TTGlyph name="plus.case" xMin="65" yMin="115" xMax="635" yMax="685">
      <component glyphName="plus" x="0" y="50" flags="0x4"/>
    </TTGlyph>
    <TTGlyph name="q" xMin="41" yMin="-200" xMax="618" yMax="629">
      <contour>
        <pt x="335" y="629" on="0"/>
        <pt x="415" y="571" on="0"/>
        <pt x="425" y="520" on="1"/>
        <pt x="462" y="520" on="1"/>
        <pt x="462" y="613" on="1"/>
        <pt x="618" y="613" on="1"/>
        <pt x="618" y="-200" on="1"/>
        <pt x="462" y="-200" on="1"/>
        <pt x="462" y="93" on="1"/>
        <pt x="425" y="93" on="1"/>
        <pt x="415" y="42" on="0"/>
        <pt x="335" y="-16" on="0"/>
        <pt x="276" y="-16" on="1"/>
        <pt x="205" y="-16" on="0"/>
        <pt x="99" y="63" on="0"/>
        <pt x="41" y="209" on="0"/>
        <pt x="41" y="307" on="1"/>
        <pt x="41" y="405" on="0"/>
        <pt x="99" y="551" on="0"/>
        <pt x="205" y="629" on="0"/>
        <pt x="276" y="629" on="1"/>
      </contour>
      <contour>
        <pt x="194" y="218" on="0"/>
        <pt x="267" y="120" on="0"/>
        <pt x="333" y="120" on="1"/>
        <pt x="399" y="120" on="0"/>
        <pt x="472" y="218" on="0"/>
        <pt x="472" y="307" on="1"/>
        <pt x="472" y="395" on="0"/>
        <pt x="399" y="493" on="0"/>
        <pt x="333" y="493" on="1"/>
        <pt x="268" y="493" on="0"/>
        <pt x="194" y="395" on="0"/>
        <pt x="194" y="307" on="1"/>
      </contour>
    </TTGlyph>
    <TTGlyph name="question" xMin="59" yMin="-9" xMax="626" yMax="819">
      <contour>
        <pt x="254" y="313" on="0"/>
        <pt x="288" y="393" on="0"/>
        <pt x="337" y="441" on="0"/>
        <pt x="375" y="468" on="1"/>
        <pt x="404" y="489" on="0"/>
        <pt x="435" y="517" on="0"/>
        <pt x="457" y="557" on="0"/>
        <pt x="457" y="584" on="1"/>
        <pt x="457" y="621" on="0"/>
        <pt x="403" y="663" on="0"/>
        <pt x="356" y="663" on="1"/>
        <pt x="303" y="663" on="0"/>
        <pt x="241" y="611" on="0"/>
        <pt x="236" y="563" on="1"/>
        <pt x="59" y="563" on="1"/>
        <pt x="69" y="686" on="0"/>
        <pt x="224" y="819" on="0"/>
        <pt x="357" y="819" on="1"/>
        <pt x="482" y="819" on="0"/>
        <pt x="626" y="693" on="0"/>
        <pt x="626" y="584" on="1"/>
        <pt x="626" y="529" on="0"/>
        <pt x="590" y="450" on="0"/>
        <pt x="539" y="400" on="0"/>
        <pt x="499" y="370" on="1"/>
        <pt x="455" y="337" on="0"/>
        <pt x="414" y="289" on="0"/>
        <pt x="415" y="254" on="1"/>
        <pt x="254" y="254" on="1"/>
      </contour>
      <contour>
        <pt x="226" y="142" on="0"/>
        <pt x="284" y="194" on="0"/>
        <pt x="339" y="194" on="1"/>
        <pt x="394" y="194" on="0"/>
        <pt x="451" y="142" on="0"/>
        <pt x="451" y="92" on="1"/>
        <pt x="451" y="43" on="0"/>
        <pt x="394" y="-9" on="0"/>
        <pt x="339" y="-9" on="1"/>
        <pt x="284" y="-9" on="0"/>
        <pt x="226" y="43" on="0"/>
        <pt x="226" y="92" on="1"/>
      </contour>
    </TTGlyph>
    <TTGlyph name="quotedbl" xMin="127" yMin="432" xMax="573" yMax="848">
      <component glyphName="quotesingle" x="-138" y="0" flags="0x0"/>
      <component glyphName="quotesingle" x="138" y="0" flags="0x0"/>
    </TTGlyph>
    <TTGlyph name="quotedblbase" xMin="55" yMin="-187" xMax="625" yMax="235">
      <component glyphName="comma" x="-160" y="0" flags="0x0"/>
      <component glyphName="comma" x="141" y="0" flags="0x0"/>
    </TTGlyph>
    <TTGlyph name="quotedblleft" xMin="75" yMin="421" xMax="645" yMax="843">
      <contour>
        <pt x="569" y="667" on="0"/>
        <pt x="632" y="603" on="0"/>
        <pt x="632" y="544" on="1"/>
        <pt x="632" y="484" on="0"/>
        <pt x="569" y="421" on="0"/>
        <pt x="510" y="421" on="1"/>
        <pt x="442" y="421" on="0"/>
        <pt x="376" y="500" on="0"/>
        <pt x="376" y="581" on="1"/>
        <pt x="376" y="733" on="0"/>
        <pt x="452" y="843" on="1"/>
        <pt x="645" y="843" on="1"/>
        <pt x="511" y="769" on="0"/>
        <pt x="483" y="665" on="1"/>
        <pt x="501" y="667" on="0"/>
        <pt x="510" y="667" on="1"/>
      </contour>
      <contour>
        <pt x="75" y="733" on="0"/>
        <pt x="151" y="843" on="1"/>
        <pt x="344" y="843" on="1"/>
        <pt x="210" y="769" on="0"/>
        <pt x="182" y="665" on="1"/>
        <pt x="200" y="667" on="0"/>
        <pt x="209" y="667" on="1"/>
        <pt x="268" y="667" on="0"/>
        <pt x="331" y="603" on="0"/>
        <pt x="331" y="544" on="1"/>
        <pt x="331" y="484" on="0"/>
        <pt x="268" y="421" on="0"/>
        <pt x="209" y="421" on="1"/>
        <pt x="141" y="421" on="0"/>
        <pt x="75" y="500" on="0"/>
        <pt x="75" y="581" on="1"/>
      </contour>
    </TTGlyph>
    <TTGlyph name="quotedblright" xMin="55" yMin="491" xMax="625" yMax="913">
      <component glyphName="quotedblbase" x="0" y="678" flags="0x4"/>
    </TTGlyph>
    <TTGlyph name="quoteleft" xMin="216" yMin="421" xMax="485" yMax="843">
      <contour>
        <pt x="409" y="667" on="0"/>
        <pt x="472" y="603" on="0"/>
        <pt x="472" y="544" on="1"/>
        <pt x="472" y="484" on="0"/>
        <pt x="409" y="421" on="0"/>
        <pt x="350" y="421" on="1"/>
        <pt x="282" y="421" on="0"/>
        <pt x="216" y="500" on="0"/>
        <pt x="216" y="581" on="1"/>
        <pt x="216" y="733" on="0"/>
        <pt x="292" y="843" on="1"/>
        <pt x="485" y="843" on="1"/>
        <pt x="351" y="769" on="0"/>
        <pt x="323" y="665" on="1"/>
        <pt x="341" y="667" on="0"/>
        <pt x="350" y="667" on="1"/>
      </contour>
    </TTGlyph>
    <TTGlyph name="quoteright" xMin="215" yMin="491" xMax="484" yMax="913">
      <component glyphName="comma" x="0" y="678" flags="0x4"/>
    </TTGlyph>
    <TTGlyph name="quotesinglbase" xMin="215" yMin="-187" xMax="484" yMax="235">
      <component glyphName="comma" x="0" y="0" flags="0x0"/>
    </TTGlyph>
    <TTGlyph name="quotesingle" xMin="265" yMin="432" xMax="435" yMax="848">
      <contour>
        <pt x="435" y="848" on="1"/>
        <pt x="410" y="432" on="1"/>
        <pt x="290" y="432" on="1"/>
        <pt x="265" y="848" on="1"/>
      </contour>
    </TTGlyph>
    <TTGlyph name="r" xMin="80" yMin="0" xMax="655" yMax="631">
      <contour>
        <pt x="351" y="613" on="1"/>
        <pt x="351" y="528" on="1"/>
        <pt x="394" y="528" on="1"/>
        <pt x="405" y="578" on="0"/>
        <pt x="466" y="631" on="0"/>
        <pt x="515" y="631" on="1"/>
        <pt x="584" y="631" on="0"/>
        <pt x="655" y="522" on="0"/>
        <pt x="655" y="416" on="1"/>
        <pt x="655" y="318" on="1"/>
        <pt x="488" y="318" on="1"/>
        <pt x="488" y="395" on="1"/>
        <pt x="488" y="483" on="0"/>
        <pt x="429" y="483" on="1"/>
        <pt x="351" y="483" on="0"/>
        <pt x="351" y="324" on="1"/>
        <pt x="351" y="139" on="1"/>
        <pt x="523" y="139" on="1"/>
        <pt x="523" y="0" on="1"/>
        <pt x="93" y="0" on="1"/>
        <pt x="93" y="139" on="1"/>
        <pt x="197" y="139" on="1"/>
        <pt x="197" y="474" on="1"/>
        <pt x="80" y="474" on="1"/>
        <pt x="80" y="613" on="1"/>
      </contour>
    </TTGlyph>
    <TTGlyph name="s" xMin="93" yMin="-19" xMax="630" yMax="632">
      <contour>
        <pt x="256" y="118" on="0"/>
        <pt x="361" y="118" on="1"/>
        <pt x="410" y="118" on="0"/>
        <pt x="464" y="149" on="0"/>
        <pt x="464" y="178" on="1"/>
        <pt x="464" y="201" on="0"/>
        <pt x="428" y="226" on="0"/>
        <pt x="386" y="230" on="1"/>
        <pt x="299" y="240" on="1"/>
        <pt x="194" y="253" on="0"/>
        <pt x="95" y="344" on="0"/>
        <pt x="95" y="428" on="1"/>
        <pt x="95" y="523" on="0"/>
        <pt x="234" y="632" on="0"/>
        <pt x="355" y="632" on="1"/>
        <pt x="483" y="632" on="0"/>
        <pt x="624" y="518" on="0"/>
        <pt x="630" y="411" on="1"/>
        <pt x="480" y="411" on="1"/>
        <pt x="476" y="452" on="0"/>
        <pt x="412" y="495" on="0"/>
        <pt x="354" y="495" on="1"/>
        <pt x="302" y="495" on="0"/>
        <pt x="246" y="463" on="0"/>
        <pt x="246" y="434" on="1"/>
        <pt x="246" y="411" on="0"/>
        <pt x="282" y="386" on="0"/>
        <pt x="323" y="382" on="1"/>
        <pt x="411" y="372" on="1"/>
        <pt x="516" y="359" on="0"/>
        <pt x="615" y="268" on="0"/>
        <pt x="615" y="185" on="1"/>
        <pt x="615" y="90" on="0"/>
        <pt x="479" y="-19" on="0"/>
        <pt x="361" y="-19" on="1"/>
        <pt x="240" y="-19" on="0"/>
        <pt x="102" y="89" on="0"/>
        <pt x="93" y="191" on="1"/>
        <pt x="244" y="191" on="1"/>
      </contour>
    </TTGlyph>
    <TTGlyph name="section" xMin="92" yMin="-216" xMax="608" yMax="816">
      <contour>
        <pt x="428" y="624" on="0"/>
        <pt x="390" y="660" on="0"/>
        <pt x="356" y="660" on="1"/>
        <pt x="325" y="660" on="0"/>
        <pt x="290" y="629" on="0"/>
        <pt x="290" y="602" on="1"/>
        <pt x="290" y="538" on="0"/>
        <pt x="377" y="521" on="1"/>
        <pt x="490" y="501" on="0"/>
        <pt x="608" y="393" on="0"/>
        <pt x="608" y="309" on="1"/>
        <pt x="608" y="238" on="0"/>
        <pt x="527" y="139" on="0"/>
        <pt x="453" y="119" on="1"/>
        <pt x="453" y="87" on="1"/>
        <pt x="513" y="76" on="0"/>
        <pt x="576" y="11" on="0"/>
        <pt x="576" y="-43" on="1"/>
        <pt x="576" y="-123" on="0"/>
        <pt x="457" y="-216" on="0"/>
        <pt x="355" y="-216" on="1"/>
        <pt x="240" y="-216" on="0"/>
        <pt x="110" y="-100" on="0"/>
        <pt x="102" y="10" on="1"/>
        <pt x="268" y="10" on="1"/>
        <pt x="272" y="-24" on="0"/>
        <pt x="310" y="-60" on="0"/>
        <pt x="344" y="-60" on="1"/>
        <pt x="375" y="-60" on="0"/>
        <pt x="410" y="-29" on="0"/>
        <pt x="410" y="-2" on="1"/>
        <pt x="410" y="62" on="0"/>
        <pt x="323" y="79" on="1"/>
        <pt x="210" y="99" on="0"/>
        <pt x="92" y="207" on="0"/>
        <pt x="92" y="291" on="1"/>
        <pt x="92" y="362" on="0"/>
        <pt x="173" y="461" on="0"/>
        <pt x="247" y="481" on="1"/>
        <pt x="247" y="513" on="1"/>
        <pt x="187" y="524" on="0"/>
        <pt x="124" y="589" on="0"/>
        <pt x="124" y="643" on="1"/>
        <pt x="124" y="723" on="0"/>
        <pt x="243" y="816" on="0"/>
        <pt x="345" y="816" on="1"/>
        <pt x="460" y="816" on="0"/>
        <pt x="590" y="700" on="0"/>
        <pt x="598" y="590" on="1"/>
        <pt x="432" y="590" on="1"/>
      </contour>
      <contour>
        <pt x="259" y="259" on="0"/>
        <pt x="307" y="213" on="0"/>
        <pt x="350" y="213" on="1"/>
        <pt x="393" y="213" on="0"/>
        <pt x="441" y="259" on="0"/>
        <pt x="441" y="300" on="1"/>
        <pt x="441" y="341" on="0"/>
        <pt x="393" y="387" on="0"/>
        <pt x="350" y="387" on="1"/>
        <pt x="307" y="387" on="0"/>
        <pt x="259" y="341" on="0"/>
        <pt x="259" y="300" on="1"/>
      </contour>
    </TTGlyph>
    <TTGlyph name="semicolon" xMin="215" yMin="-187" xMax="484" yMax="623">
      <component glyphName="period" x="0" y="388" flags="0x4"/>
      <component glyphName="comma" x="0" y="0" flags="0x0"/>
    </TTGlyph>
    <TTGlyph name="seven" xMin="68" yMin="0" xMax="612" yMax="800">
      <contour>
        <pt x="351" y="0" on="1"/>
        <pt x="172" y="0" on="1"/>
        <pt x="483" y="644" on="1"/>
        <pt x="68" y="644" on="1"/>
        <pt x="68" y="800" on="1"/>
        <pt x="612" y="800" on="1"/>
        <pt x="612" y="563" on="1"/>
      </contour>
    </TTGlyph>
    <TTGlyph name="six" xMin="54" yMin="-19" xMax="646" yMax="800">
      <contour>
        <pt x="260" y="-19" on="0"/>
        <pt x="127" y="52" on="0"/>
        <pt x="54" y="182" on="0"/>
        <pt x="54" y="269" on="1"/>
        <pt x="54" y="393" on="0"/>
        <pt x="136" y="515" on="1"/>
        <pt x="327" y="800" on="1"/>
        <pt x="521" y="800" on="1"/>
        <pt x="321" y="513" on="1"/>
        <pt x="348" y="493" on="1"/>
        <pt x="360" y="505" on="0"/>
        <pt x="404" y="519" on="0"/>
        <pt x="430" y="519" on="1"/>
        <pt x="492" y="519" on="0"/>
        <pt x="590" y="454" on="0"/>
        <pt x="646" y="340" on="0"/>
        <pt x="646" y="269" on="1"/>
        <pt x="646" y="182" on="0"/>
        <pt x="573" y="52" on="0"/>
        <pt x="438" y="-19" on="0"/>
        <pt x="348" y="-19" on="1"/>
      </contour>
      <contour>
        <pt x="222" y="208" on="0"/>
        <pt x="291" y="135" on="0"/>
        <pt x="349" y="135" on="1"/>
        <pt x="407" y="135" on="0"/>
        <pt x="478" y="208" on="0"/>
        <pt x="478" y="269" on="1"/>
        <pt x="478" y="330" on="0"/>
        <pt x="409" y="404" on="0"/>
        <pt x="351" y="404" on="1"/>
        <pt x="293" y="404" on="0"/>
        <pt x="222" y="330" on="0"/>
        <pt x="222" y="269" on="1"/>
      </contour>
    </TTGlyph>
    <TTGlyph name="slash" xMin="101" yMin="-170" xMax="599" yMax="848">
      <contour>
        <pt x="252" y="-170" on="1"/>
        <pt x="101" y="-170" on="1"/>
        <pt x="448" y="848" on="1"/>
        <pt x="599" y="848" on="1"/>
      </contour>
    </TTGlyph>
    <TTGlyph name="sterling" xMin="71" yMin="0" xMax="649" yMax="819">
      <contour>
        <pt x="197" y="260" on="0"/>
        <pt x="197" y="324" on="1"/>
        <pt x="197" y="330" on="0"/>
        <pt x="195" y="340" on="1"/>
        <pt x="71" y="340" on="1"/>
        <pt x="71" y="458" on="1"/>
        <pt x="141" y="458" on="1"/>
        <pt x="116" y="513" on="0"/>
        <pt x="116" y="569" on="1"/>
        <pt x="116" y="685" on="0"/>
        <pt x="255" y="819" on="0"/>
        <pt x="376" y="819" on="1"/>
        <pt x="497" y="819" on="0"/>
        <pt x="637" y="679" on="0"/>
        <pt x="649" y="546" on="1"/>
        <pt x="480" y="546" on="1"/>
        <pt x="473" y="603" on="0"/>
        <pt x="420" y="663" on="0"/>
        <pt x="376" y="663" on="1"/>
        <pt x="331" y="663" on="0"/>
        <pt x="280" y="613" on="0"/>
        <pt x="280" y="569" on="1"/>
        <pt x="280" y="518" on="0"/>
        <pt x="311" y="458" on="1"/>
        <pt x="502" y="458" on="1"/>
        <pt x="502" y="340" on="1"/>
        <pt x="360" y="340" on="1"/>
        <pt x="361" y="335" on="0"/>
        <pt x="361" y="324" on="1"/>
        <pt x="361" y="257" on="0"/>
        <pt x="257" y="175" on="0"/>
        <pt x="149" y="156" on="1"/>
        <pt x="629" y="156" on="1"/>
        <pt x="629" y="0" on="1"/>
        <pt x="71" y="0" on="1"/>
        <pt x="71" y="250" on="1"/>
      </contour>
    </TTGlyph>
    <TTGlyph name="t" xMin="70" yMin="-19" xMax="633" yMax="772">
      <contour>
        <pt x="343" y="613" on="1"/>
        <pt x="612" y="613" on="1"/>
        <pt x="612" y="474" on="1"/>
        <pt x="343" y="474" on="1"/>
        <pt x="343" y="212" on="1"/>
        <pt x="343" y="165" on="0"/>
        <pt x="375" y="121" on="0"/>
        <pt x="409" y="121" on="1"/>
        <pt x="443" y="121" on="0"/>
        <pt x="479" y="177" on="0"/>
        <pt x="484" y="236" on="1"/>
        <pt x="633" y="236" on="1"/>
        <pt x="625" y="112" on="0"/>
        <pt x="508" y="-19" on="0"/>
        <pt x="405" y="-19" on="1"/>
        <pt x="299" y="-19" on="0"/>
        <pt x="187" y="100" on="0"/>
        <pt x="187" y="212" on="1"/>
        <pt x="187" y="474" on="1"/>
        <pt x="70" y="474" on="1"/>
        <pt x="70" y="613" on="1"/>
        <pt x="187" y="613" on="1"/>
        <pt x="187" y="772" on="1"/>
        <pt x="343" y="772" on="1"/>
      </contour>
    </TTGlyph>
    <TTGlyph name="three" xMin="45" yMin="-19" xMax="647" yMax="819">
      <contour>
        <pt x="644" y="143" on="0"/>
        <pt x="574" y="37" on="0"/>
        <pt x="444" y="-19" on="0"/>
        <pt x="355" y="-19" on="1"/>
        <pt x="218" y="-19" on="0"/>
        <pt x="59" y="119" on="0"/>
        <pt x="49" y="247" on="1"/>
        <pt x="223" y="247" on="1"/>
        <pt x="228" y="192" on="0"/>
        <pt x="296" y="135" on="0"/>
        <pt x="355" y="135" on="1"/>
        <pt x="411" y="135" on="0"/>
        <pt x="473" y="186" on="0"/>
        <pt x="473" y="232" on="1"/>
        <pt x="473" y="278" on="0"/>
        <pt x="419" y="328" on="0"/>
        <pt x="370" y="328" on="1"/>
        <pt x="283" y="328" on="1"/>
        <pt x="283" y="472" on="1"/>
        <pt x="370" y="472" on="1"/>
        <pt x="420" y="472" on="0"/>
        <pt x="477" y="521" on="0"/>
        <pt x="477" y="564" on="1"/>
        <pt x="477" y="612" on="0"/>
        <pt x="415" y="665" on="0"/>
        <pt x="359" y="665" on="1"/>
        <pt x="298" y="665" on="0"/>
        <pt x="227" y="602" on="0"/>
        <pt x="220" y="543" on="1"/>
        <pt x="45" y="543" on="1"/>
        <pt x="56" y="675" on="0"/>
        <pt x="219" y="819" on="0"/>
        <pt x="360" y="819" on="1"/>
        <pt x="448" y="819" on="0"/>
        <pt x="578" y="761" on="0"/>
        <pt x="647" y="654" on="0"/>
        <pt x="647" y="581" on="1"/>
        <pt x="647" y="513" on="0"/>
        <pt x="572" y="426" on="0"/>
        <pt x="506" y="418" on="1"/>
        <pt x="506" y="381" on="1"/>
        <pt x="570" y="373" on="0"/>
        <pt x="644" y="284" on="0"/>
        <pt x="644" y="214" on="1"/>
      </contour>
    </TTGlyph>
    <TTGlyph name="two" xMin="65" yMin="0" xMax="644" yMax="819">
      <contour>
        <pt x="430" y="447" on="0"/>
        <pt x="476" y="513" on="0"/>
        <pt x="476" y="555" on="1"/>
        <pt x="476" y="605" on="0"/>
        <pt x="418" y="663" on="0"/>
        <pt x="366" y="663" on="1"/>
        <pt x="313" y="663" on="0"/>
        <pt x="248" y="601" on="0"/>
        <pt x="241" y="543" on="1"/>
        <pt x="65" y="543" on="1"/>
        <pt x="75" y="675" on="0"/>
        <pt x="232" y="819" on="0"/>
        <pt x="366" y="819" on="1"/>
        <pt x="496" y="819" on="0"/>
        <pt x="644" y="677" on="0"/>
        <pt x="644" y="555" on="1"/>
        <pt x="644" y="470" on="0"/>
        <pt x="550" y="338" on="0"/>
        <pt x="452" y="284" on="1"/>
        <pt x="228" y="156" on="1"/>
        <pt x="626" y="156" on="1"/>
        <pt x="626" y="0" on="1"/>
        <pt x="85" y="0" on="1"/>
        <pt x="85" y="239" on="1"/>
        <pt x="379" y="416" on="1"/>
      </contour>
    </TTGlyph>
    <TTGlyph name="u" xMin="82" yMin="-19" xMax="609" yMax="613">
      <contour>
        <pt x="453" y="0" on="1"/>
        <pt x="453" y="94" on="1"/>
        <pt x="416" y="94" on="1"/>
        <pt x="405" y="40" on="0"/>
        <pt x="328" y="-19" on="0"/>
        <pt x="268" y="-19" on="1"/>
        <pt x="181" y="-19" on="0"/>
        <pt x="82" y="109" on="0"/>
        <pt x="82" y="223" on="1"/>
        <pt x="82" y="613" on="1"/>
        <pt x="238" y="613" on="1"/>
        <pt x="238" y="262" on="1"/>
        <pt x="238" y="195" on="0"/>
        <pt x="292" y="127" on="0"/>
        <pt x="345" y="127" on="1"/>
        <pt x="453" y="127" on="0"/>
        <pt x="453" y="262" on="1"/>
        <pt x="453" y="613" on="1"/>
        <pt x="609" y="613" on="1"/>
        <pt x="609" y="0" on="1"/>
      </contour>
    </TTGlyph>
    <TTGlyph name="underscore" xMin="83" yMin="-162" xMax="617" yMax="-50">
      <contour>
        <pt x="617" y="-50" on="1"/>
        <pt x="617" y="-162" on="1"/>
        <pt x="83" y="-162" on="1"/>
        <pt x="83" y="-50" on="1"/>
      </contour>
    </TTGlyph>
    <TTGlyph name="uni0237" xMin="68" yMin="-219" xMax="525" yMax="613">
      <contour>
        <pt x="525" y="613" on="1"/>
        <pt x="525" y="-6" on="1"/>
        <pt x="525" y="-108" on="0"/>
        <pt x="406" y="-219" on="0"/>
        <pt x="296" y="-219" on="1"/>
        <pt x="193" y="-219" on="0"/>
        <pt x="74" y="-122" on="0"/>
        <pt x="68" y="-33" on="1"/>
        <pt x="223" y="-33" on="1"/>
        <pt x="231" y="-86" on="0"/>
        <pt x="295" y="-86" on="1"/>
        <pt x="369" y="-86" on="0"/>
        <pt x="369" y="-7" on="1"/>
        <pt x="369" y="474" on="1"/>
        <pt x="120" y="474" on="1"/>
        <pt x="120" y="613" on="1"/>
      </contour>
    </TTGlyph>
    <TTGlyph name="uni0306.cy" xMin="-5" yMin="866" xMax="376" yMax="1024">
      <contour>
        <pt x="134" y="993" on="0"/>
        <pt x="160" y="963" on="0"/>
        <pt x="185" y="963" on="1"/>
        <pt x="210" y="963" on="0"/>
        <pt x="236" y="993" on="0"/>
        <pt x="238" y="1024" on="1"/>
        <pt x="376" y="1024" on="1"/>
        <pt x="369" y="947" on="0"/>
        <pt x="271" y="866" on="0"/>
        <pt x="185" y="866" on="1"/>
        <pt x="99" y="866" on="0"/>
        <pt x="2" y="947" on="0"/>
        <pt x="-5" y="1024" on="1"/>
        <pt x="132" y="1024" on="1"/>
      </contour>
    </TTGlyph>
    <TTGlyph name="uni0307" xMin="-20" yMin="692" xMax="188" yMax="872">
      <contour>
        <pt x="35" y="692" on="0"/>
        <pt x="-20" y="740" on="0"/>
        <pt x="-20" y="782" on="1"/>
        <pt x="-20" y="824" on="0"/>
        <pt x="35" y="872" on="0"/>
        <pt x="84" y="872" on="1"/>
        <pt x="133" y="872" on="0"/>
        <pt x="188" y="824" on="0"/>
        <pt x="188" y="782" on="1"/>
        <pt x="188" y="740" on="0"/>
        <pt x="133" y="692" on="0"/>
        <pt x="84" y="692" on="1"/>
      </contour>
    </TTGlyph>
    <TTGlyph name="uni0308" xMin="-168" yMin="837" xMax="268" yMax="1004">
      <contour>
        <pt x="-122" y="837" on="0"/>
        <pt x="-168" y="881" on="0"/>
        <pt x="-168" y="921" on="1"/>
        <pt x="-168" y="960" on="0"/>
        <pt x="-122" y="1004" on="0"/>
        <pt x="-81" y="1004" on="1"/>
        <pt x="-40" y="1004" on="0"/>
        <pt x="6" y="960" on="0"/>
        <pt x="6" y="921" on="1"/>
        <pt x="6" y="881" on="0"/>
        <pt x="-40" y="837" on="0"/>
        <pt x="-81" y="837" on="1"/>
      </contour>
      <contour>
        <pt x="94" y="960" on="0"/>
        <pt x="140" y="1004" on="0"/>
        <pt x="181" y="1004" on="1"/>
        <pt x="222" y="1004" on="0"/>
        <pt x="268" y="960" on="0"/>
        <pt x="268" y="921" on="1"/>
        <pt x="268" y="881" on="0"/>
        <pt x="222" y="837" on="0"/>
        <pt x="181" y="837" on="1"/>
        <pt x="140" y="837" on="0"/>
        <pt x="94" y="881" on="0"/>
        <pt x="94" y="921" on="1"/>
      </contour>
    </TTGlyph>
    <TTGlyph name="uni043D" xMin="91" yMin="0" xMax="608" yMax="613">
      <contour>
        <pt x="247" y="613" on="1"/>
        <pt x="247" y="375" on="1"/>
        <pt x="452" y="375" on="1"/>
        <pt x="452" y="613" on="1"/>
        <pt x="608" y="613" on="1"/>
        <pt x="608" y="0" on="1"/>
        <pt x="452" y="0" on="1"/>
        <pt x="452" y="229" on="1"/>
        <pt x="247" y="229" on="1"/>
        <pt x="247" y="0" on="1"/>
        <pt x="91" y="0" on="1"/>
        <pt x="91" y="613" on="1"/>
      </contour>
    </TTGlyph>
    <TTGlyph name="uni043E" xMin="58" yMin="-19" xMax="642" yMax="632">
      <component glyphName="o" x="0" y="0" flags="0x0"/>
    </TTGlyph>
    <TTGlyph name="uni20BD" xMin="44" yMin="0" xMax="666" yMax="800">
      <contour>
        <pt x="485" y="800" on="0"/>
        <pt x="602" y="739" on="0"/>
        <pt x="666" y="627" on="0"/>
        <pt x="666" y="553" on="1"/>
        <pt x="666" y="479" on="0"/>
        <pt x="602" y="368" on="0"/>
        <pt x="485" y="307" on="0"/>
        <pt x="407" y="307" on="1"/>
        <pt x="293" y="307" on="1"/>
        <pt x="293" y="253" on="1"/>
        <pt x="477" y="253" on="1"/>
        <pt x="477" y="123" on="1"/>
        <pt x="293" y="123" on="1"/>
        <pt x="293" y="0" on="1"/>
        <pt x="137" y="0" on="1"/>
        <pt x="137" y="123" on="1"/>
        <pt x="44" y="123" on="1"/>
        <pt x="44" y="253" on="1"/>
        <pt x="137" y="253" on="1"/>
        <pt x="137" y="307" on="1"/>
        <pt x="44" y="307" on="1"/>
        <pt x="44" y="437" on="1"/>
        <pt x="137" y="437" on="1"/>
        <pt x="137" y="800" on="1"/>
        <pt x="407" y="800" on="1"/>
      </contour>
      <contour>
        <pt x="394" y="447" on="1"/>
        <pt x="445" y="447" on="0"/>
        <pt x="502" y="500" on="0"/>
        <pt x="502" y="547" on="1"/>
        <pt x="502" y="594" on="0"/>
        <pt x="445" y="647" on="0"/>
        <pt x="394" y="647" on="1"/>
        <pt x="293" y="647" on="1"/>
        <pt x="293" y="447" on="1"/>
      </contour>
    </TTGlyph>
    <TTGlyph name="v" xMin="41" yMin="0" xMax="659" yMax="613">
      <contour>
        <pt x="202" y="613" on="1"/>
        <pt x="353" y="79" on="1"/>
        <pt x="505" y="613" on="1"/>
        <pt x="659" y="613" on="1"/>
        <pt x="477" y="0" on="1"/>
        <pt x="223" y="0" on="1"/>
        <pt x="41" y="613" on="1"/>
      </contour>
    </TTGlyph>
    <TTGlyph name="w" xMin="23" yMin="0" xMax="677" yMax="613">
      <contour>
        <pt x="178" y="613" on="1"/>
        <pt x="225" y="86" on="1"/>
        <pt x="265" y="613" on="1"/>
        <pt x="443" y="613" on="1"/>
        <pt x="481" y="86" on="1"/>
        <pt x="529" y="613" on="1"/>
        <pt x="677" y="613" on="1"/>
        <pt x="586" y="0" on="1"/>
        <pt x="394" y="0" on="1"/>
        <pt x="351" y="530" on="1"/>
        <pt x="308" y="0" on="1"/>
        <pt x="114" y="0" on="1"/>
        <pt x="23" y="613" on="1"/>
      </contour>
    </TTGlyph>
    <TTGlyph name="x" xMin="50" yMin="0" xMax="650" yMax="613">
      <contour>
        <pt x="224" y="294" on="1"/>
        <pt x="50" y="613" on="1"/>
        <pt x="221" y="613" on="1"/>
        <pt x="350" y="368" on="1"/>
        <pt x="485" y="613" on="1"/>
        <pt x="650" y="613" on="1"/>
        <pt x="474" y="302" on="1"/>
        <pt x="639" y="0" on="1"/>
        <pt x="468" y="0" on="1"/>
        <pt x="349" y="226" on="1"/>
        <pt x="226" y="0" on="1"/>
        <pt x="61" y="0" on="1"/>
      </contour>
    </TTGlyph>
    <TTGlyph name="y" xMin="38" yMin="-219" xMax="665" yMax="613">
      <contour>
        <pt x="205" y="613" on="1"/>
        <pt x="370" y="107" on="1"/>
        <pt x="500" y="613" on="1"/>
        <pt x="665" y="613" on="1"/>
        <pt x="484" y="-51" on="1"/>
        <pt x="438" y="-219" on="0"/>
        <pt x="288" y="-219" on="1"/>
        <pt x="119" y="-219" on="0"/>
        <pt x="87" y="-31" on="1"/>
        <pt x="239" y="-31" on="1"/>
        <pt x="252" y="-86" on="0"/>
        <pt x="288" y="-86" on="1"/>
        <pt x="321" y="-86" on="0"/>
        <pt x="337" y="-23" on="1"/>
        <pt x="356" y="50" on="1"/>
        <pt x="230" y="50" on="1"/>
        <pt x="38" y="613" on="1"/>
      </contour>
    </TTGlyph>
    <TTGlyph name="yen" xMin="24" yMin="0" xMax="680" yMax="800">
      <contour>
        <pt x="353" y="467" on="1"/>
        <pt x="508" y="800" on="1"/>
        <pt x="680" y="800" on="1"/>
        <pt x="476" y="396" on="1"/>
        <pt x="596" y="396" on="1"/>
        <pt x="596" y="286" on="1"/>
        <pt x="433" y="286" on="1"/>
        <pt x="433" y="219" on="1"/>
        <pt x="596" y="219" on="1"/>
        <pt x="596" y="109" on="1"/>
        <pt x="433" y="109" on="1"/>
        <pt x="433" y="0" on="1"/>
        <pt x="270" y="0" on="1"/>
        <pt x="270" y="109" on="1"/>
        <pt x="107" y="109" on="1"/>
        <pt x="107" y="219" on="1"/>
        <pt x="270" y="219" on="1"/>
        <pt x="270" y="286" on="1"/>
        <pt x="107" y="286" on="1"/>
        <pt x="107" y="396" on="1"/>
        <pt x="227" y="396" on="1"/>
        <pt x="24" y="800" on="1"/>
        <pt x="199" y="800" on="1"/>
      </contour>
    </TTGlyph>
    <TTGlyph name="z" xMin="104" yMin="0" xMax="596" yMax="613">
      <contour>
        <pt x="596" y="613" on="1"/>
        <pt x="596" y="361" on="1"/>
        <pt x="185" y="139" on="1"/>
        <pt x="596" y="139" on="1"/>
        <pt x="596" y="0" on="1"/>
        <pt x="104" y="0" on="1"/>
        <pt x="104" y="252" on="1"/>
        <pt x="515" y="474" on="1"/>
        <pt x="104" y="474" on="1"/>
        <pt x="104" y="613" on="1"/>
      </contour>
    </TTGlyph>
    <TTGlyph name="zero" xMin="38" yMin="-19" xMax="662" yMax="819">
      <contour>
        <pt x="196" y="-19" on="0"/>
        <pt x="38" y="193" on="0"/>
        <pt x="38" y="400" on="1"/>
        <pt x="38" y="607" on="0"/>
        <pt x="196" y="819" on="0"/>
        <pt x="350" y="819" on="1"/>
        <pt x="504" y="819" on="0"/>
        <pt x="662" y="607" on="0"/>
        <pt x="662" y="400" on="1"/>
        <pt x="662" y="193" on="0"/>
        <pt x="504" y="-19" on="0"/>
        <pt x="350" y="-19" on="1"/>
      </contour>
      <contour>
        <pt x="200" y="371" on="1"/>
        <pt x="475" y="578" on="1"/>
        <pt x="439" y="670" on="0"/>
        <pt x="350" y="670" on="1"/>
        <pt x="274" y="670" on="0"/>
        <pt x="200" y="537" on="0"/>
        <pt x="200" y="400" on="1"/>
      </contour>
      <contour>
        <pt x="262" y="130" on="0"/>
        <pt x="350" y="130" on="1"/>
        <pt x="426" y="130" on="0"/>
        <pt x="500" y="263" on="0"/>
        <pt x="500" y="400" on="1"/>
        <pt x="500" y="428" on="1"/>
        <pt x="226" y="221" on="1"/>
      </contour>
    </TTGlyph>
</ttFont>
